<svg width="52" height="52" viewBox="0 0 52 52" fill="none" xmlns="http://www.w3.org/2000/svg">
<path fill-rule="evenodd" clip-rule="evenodd" d="M24.2545 6.22846C23.5871 6.34866 22.573 6.58518 22.001 6.7541C21.429 6.92303 20.6229 7.1961 20.2096 7.36081C19.7964 7.52552 19.012 7.88621 18.4665 8.16244C17.9211 8.43868 17.089 8.91582 16.6174 9.22298C16.1458 9.53002 15.5259 9.96874 15.2399 10.1979C14.9538 10.427 14.3866 10.9052 13.9794 11.2608C13.5723 11.6162 12.8259 12.3806 12.3209 12.9593C11.8159 13.538 11.0735 14.5132 10.6711 15.1265C10.2686 15.7398 9.70673 16.6896 9.42242 17.2372C9.13811 17.7849 8.71188 18.7602 8.47519 19.4045C8.2385 20.0488 7.90449 21.1505 7.7331 21.853L7.4214 23.1299L5.84095 23.129C4.8342 23.1285 4 23 4.2605 23.2487C4.5 23.5 5.15237 24.9284 6.24233 26.8342C7.3323 28.7399 8.58672 30.9228 9.02982 31.6851C9.47293 32.4474 9.87466 33.0273 9.9225 32.9737C9.97035 32.9202 11.2679 30.7436 12.806 28.137C14.3441 25.5302 15.6235 23.5456 15.6235 23.2804C15.5 23 15.0313 23.1614 14.0026 23.1582L12.3606 23.1532L12.4236 22.8603C12.4582 22.6992 12.6182 22.1457 12.7793 21.6303C12.9404 21.1148 13.3262 20.1737 13.6367 19.5388C13.9472 18.904 14.5237 17.9288 14.9179 17.3716C15.3121 16.8145 16.057 15.9369 16.573 15.4215C17.0891 14.906 17.9755 14.1497 18.5426 13.7409C19.1098 13.3319 20.0939 12.7421 20.7296 12.4301C21.3652 12.1182 22.2233 11.7525 22.6365 11.6176C23.0497 11.4827 23.705 11.2975 24.0926 11.2062C24.4803 11.1148 25.3645 10.9808 26.0573 10.9084C26.7603 10.8348 27.828 10.8106 28.4729 10.8533C29.1085 10.8955 30.1348 11.0321 30.7536 11.1567C31.3723 11.2815 32.2564 11.5214 32.7183 11.6899C33.1802 11.8583 34.0148 12.2245 34.5729 12.5036C35.1311 12.7826 35.9889 13.2897 36.479 13.6305C36.9692 13.9712 37.8066 14.6717 38.34 15.1872C38.8732 15.7026 39.6069 16.5197 39.9701 17.003C40.3333 17.4862 40.8703 18.3033 41.1633 18.8187C41.4564 19.3342 41.8613 20.1774 42.063 20.6926C42.2647 21.2077 42.5263 21.9818 42.644 22.4127C42.7618 22.8436 42.9368 23.6873 43.0328 24.2875C43.1288 24.8878 43.2077 25.9652 43.2079 26.6815C43.2081 27.3979 43.1286 28.4522 43.0311 29.0245C42.9336 29.5967 42.746 30.4602 42.6142 30.9435C42.4823 31.4267 42.1313 32.3763 41.8342 33.0536C41.537 33.731 40.9606 34.7853 40.5532 35.3966C40.1296 36.0321 39.2866 37.0424 38.5843 37.756C37.7818 38.5715 36.9519 39.2725 36.1898 39.7787C35.5482 40.2048 34.6417 40.7295 34.1751 40.9448C33.7087 41.1601 33.0149 41.4475 32.6335 41.5832C32.2521 41.7191 31.719 41.8868 31.4489 41.9559L30.9577 42.0815V44.5371C30.9577 46.1132 30.9995 46.9926 31.0745 46.9926C31.1387 46.9926 31.6485 46.8894 32.2074 46.7632C32.7662 46.6371 33.6888 46.3685 34.2575 46.1665C34.8263 45.9644 35.7337 45.5905 36.274 45.3355C36.8143 45.0804 37.6465 44.6273 38.1232 44.3286C38.5999 44.0299 39.406 43.4668 39.9146 43.0774C40.4231 42.6881 41.2491 41.9732 41.7501 41.4888C42.2512 41.0044 42.9588 40.2391 43.3227 39.7881C43.6866 39.3371 44.3091 38.4672 44.7061 37.8551C45.1032 37.2431 45.6779 36.2151 45.9834 35.5708C46.2888 34.9265 46.6966 33.9423 46.8895 33.3838C47.0825 32.8252 47.3416 31.929 47.4654 31.3923C47.5892 30.8555 47.7605 29.9419 47.846 29.362C47.9317 28.7821 48.0009 27.5169 48 26.5504C47.9991 25.584 47.9294 24.3451 47.8449 23.7975C47.7605 23.2498 47.5665 22.2898 47.4138 21.664C47.261 21.0382 47.0001 20.142 46.8339 19.6725C46.6677 19.203 46.2833 18.2916 45.9796 17.6473C45.6758 17.003 45.1195 16.0013 44.7432 15.4215C44.3669 14.8416 43.6674 13.8927 43.1889 13.3128C42.7105 12.7329 42.0381 11.993 41.6947 11.6687C41.3512 11.3442 40.7062 10.7837 40.2613 10.423C39.8163 10.0625 39.0882 9.53049 38.6433 9.24113C38.1983 8.95166 37.351 8.46937 36.7604 8.16936C36.1697 7.86934 35.4156 7.51368 35.0846 7.37896C34.7536 7.24436 33.9626 6.97984 33.3269 6.79135C32.6913 6.60286 31.581 6.34561 30.8596 6.21979C29.8737 6.04794 29.0412 5.99347 27.508 6.00061C26.0645 6.00729 25.1132 6.07395 24.2545 6.22846ZM24.9479 22.5674V29.4205H29.2241C29.2241 29.4205 32.0006 29.4205 33.5003 29.4205C35 29.4205 35 26.8433 33.5003 26.8433C32.0006 26.8433 30.4376 26.8433 30.4376 26.8433H27.375V21.2788C27.375 21.2788 27.375 16.9287 27.375 15.7143C27.375 14.5 24.9479 14.5 24.9479 15.7143C24.9479 16.5 24.9479 22.5674 24.9479 22.5674ZM6.68752 35.6145C6.52861 35.6677 6.19056 35.8199 5.9363 35.9528C5.68204 36.0856 5.29684 36.3704 5.08025 36.5855C4.86379 36.8006 4.55602 37.264 4.39653 37.6153C4.23704 37.9667 4.08252 38.5071 4.05316 38.8161L4 39.3781H5.32873H6.65747L6.7171 38.842C6.75859 38.469 6.87521 38.2017 7.10046 37.9634C7.35495 37.6941 7.5253 37.6209 7.89698 37.6209C8.1569 37.6209 8.48132 37.7 8.61769 37.7969C8.75407 37.8938 8.92696 38.1611 9.00174 38.391C9.10541 38.7091 9.10598 38.9373 9.00416 39.347C8.93066 39.643 8.68253 40.1723 8.45277 40.5232C8.22301 40.874 7.18575 42.0728 6.1478 43.1872L4.2605 45.2134V46.103V46.9926H8.13217H12.0038V45.8824V44.7721L9.93868 44.7402L7.87352 44.7083L9.08472 43.3611C9.75088 42.6201 10.5311 41.7057 10.8185 41.3289C11.106 40.9523 11.4382 40.3849 11.5569 40.0684C11.6756 39.7518 11.7727 39.2316 11.7727 38.9126C11.7727 38.5935 11.6613 38.0275 11.5251 37.6546C11.3696 37.2286 11.1055 36.809 10.815 36.5258C10.5606 36.2779 10.1129 35.968 9.82011 35.8373C9.43282 35.6641 8.97331 35.5883 8.13217 35.5586C7.49652 35.5362 6.84643 35.5613 6.68752 35.6145ZM21.2496 41.2524V47L22.6076 46.9671L23.9656 46.934L23.9963 43.8043L24.0272 40.6746L24.4972 40.5464C24.7557 40.4758 25.1207 40.4522 25.3083 40.494C25.4958 40.5357 25.7385 40.7078 25.8476 40.8764C26.0186 41.1408 26.0511 41.5827 26.0837 44.0877L26.1215 46.9926H27.3906H28.6597L28.6241 43.7418C28.5886 40.5013 28.5875 40.4888 28.2809 39.8259C28.0708 39.3715 27.8327 39.0672 27.5297 38.8651C27.2856 38.7025 26.8481 38.516 26.5572 38.4506C26.2663 38.3854 25.8307 38.3644 25.5894 38.4041C25.3479 38.4438 24.8981 38.6483 24.5898 38.8587L24.0291 39.2411L23.9974 37.406L23.9656 35.5708L22.6076 35.5377L21.2496 35.5048V41.2524ZM14.2637 39.3195L12.0255 42.951L12.0883 43.7418L12.1511 44.5325H14.3311H16.5112V45.7626V46.9926H17.7784H19.0457L19.0786 45.7919L19.1115 44.5911L19.7229 44.5555L20.3342 44.52L20.3008 43.5597L20.2673 42.5996L19.6605 42.5642L19.0538 42.5287V39.1449V35.7611L17.778 35.7245L16.502 35.6879L14.2637 39.3195ZM16.5112 40.8424V42.541H15.4759H14.4406L15.4466 40.8424C16 39.9081 16.4659 39.1438 16.4819 39.1438C16.498 39.1438 16.5112 39.9081 16.5112 40.8424Z" fill="#964DDF"/>
</svg>
