<svg width="60" height="60" viewBox="0 0 60 60" fill="none" xmlns="http://www.w3.org/2000/svg">
<path fill-rule="evenodd" clip-rule="evenodd" d="M7.81907 2.72361C5.46476 3.13317 3.65596 4.70356 2.94628 6.95395C2.54607 8.22318 2.54677 21.1032 2.94709 22.3764C3.5562 24.3132 5.03548 25.7916 6.97752 26.4047C8.24418 26.8044 21.1212 26.8044 22.3878 26.4047C24.3299 25.7916 25.8092 24.3132 26.4183 22.3764C26.8186 21.1032 26.8193 8.22318 26.4191 6.95395C25.8163 5.04263 24.3669 3.57054 22.4541 2.92682C21.7068 2.67527 21.5688 2.67017 15.0303 2.64931C11.366 2.6376 8.12102 2.6711 7.81907 2.72361ZM39.3349 2.72361C36.9806 3.13317 35.1718 4.70356 34.4621 6.95395C34.0619 8.22318 34.0626 21.1032 34.4629 22.3764C35.072 24.3132 36.5513 25.7916 38.4934 26.4047C39.76 26.8044 52.637 26.8044 53.9037 26.4047C55.8457 25.7916 57.325 24.3132 57.9341 22.3764C58.3344 21.1032 58.3351 8.22318 57.9349 6.95395C57.3322 5.04263 55.8827 3.57054 53.97 2.92682C53.2226 2.67527 53.0846 2.67017 46.5461 2.64931C42.8818 2.6376 39.6369 2.6711 39.3349 2.72361ZM7.81907 34.2543C5.46476 34.6639 3.65596 36.2343 2.94628 38.4847C2.54607 39.7539 2.54677 52.634 2.94709 53.9071C3.5562 55.844 5.03548 57.3223 6.97752 57.9354C8.24418 58.3351 21.1212 58.3351 22.3878 57.9354C24.3299 57.3223 25.8092 55.844 26.4183 53.9071C26.8186 52.634 26.8193 39.7539 26.4191 38.4847C25.8163 36.5734 24.3669 35.1013 22.4541 34.4576C21.7068 34.206 21.5688 34.2009 15.0303 34.18C11.366 34.1683 8.12102 34.2018 7.81907 34.2543ZM45.1557 34.207C39.9414 34.8097 35.8157 38.3065 34.5694 43.1795C32.3084 52.0208 40.3209 60.0541 49.1836 57.8318C53.6288 56.7172 57.1648 52.9347 58.0042 48.396C59.1913 41.9787 55.0336 35.7748 48.6451 34.4302C47.8219 34.257 45.8274 34.1295 45.1557 34.207Z" fill="white"/>
</svg>
