<svg width="60" height="60" viewBox="0 0 60 60" fill="none" xmlns="http://www.w3.org/2000/svg">
<path fill-rule="evenodd" clip-rule="evenodd" d="M34.3693 4.92971C33.0794 6.08062 32.0243 8.99044 32.7212 9.47482C33.4034 9.94918 33.825 9.65277 34.2877 8.37312C34.7458 7.10607 35.0153 6.62856 35.5907 6.06523C36.1957 5.47264 36.2923 4.90429 35.841 4.59062C35.3899 4.27695 35.0001 4.36673 34.3693 4.92971ZM45.1491 6.28807C42.3646 6.73048 40.2144 9.31216 40.2144 12.2129C40.2144 17.5277 46.6789 20.1432 50.4618 16.3588C54.5504 12.2685 50.9124 5.37235 45.1491 6.28807ZM28.2673 7.44166C27.6014 7.70799 27.6124 8.35633 28.2941 9.01388C28.8354 9.53593 29.4885 10.7505 29.7492 11.7199C29.8886 12.2378 30.3395 12.6882 30.7188 12.6882C31.0071 12.6882 31.5201 12.1814 31.5201 11.8965C31.5201 11.1462 30.5302 8.96502 29.8329 8.17885C29.4546 7.7523 28.7548 7.28751 28.5572 7.33159C28.5389 7.33567 28.4085 7.38523 28.2673 7.44166ZM12.2653 8.20392C7.61442 9.20534 5.92995 14.9691 9.32004 18.2818C12.1549 21.0519 16.833 20.3937 18.7725 16.9517C21.2786 12.5042 17.277 7.12472 12.2653 8.20392ZM33.0365 13.7734C32.4233 14.092 31.8119 14.9243 31.6975 15.5961C31.4198 17.2277 32.4417 18.2432 38.3933 22.251C40.138 23.4258 41.5819 24.399 41.6018 24.4136C41.6217 24.4283 41.8148 26.393 42.0308 28.7797L42.4236 33.1191L42.0821 36.8673C41.684 41.2353 41.6468 42.7427 41.9088 43.8613C42.0814 44.5978 44.0643 49.6224 44.5587 50.5763C45.8231 53.0151 49.5563 52.1045 49.5403 49.3611C49.5368 48.7452 49.3924 48.3145 48.3342 45.7627C47.6732 44.1683 47.1042 42.6204 47.0698 42.3228C47.0162 41.8578 47.2262 38.9393 47.4548 36.9716L47.5259 36.3594H47.9745C48.3005 36.3594 48.4393 36.4151 48.4828 36.5635C48.5157 36.6756 48.8162 38.0531 49.1505 39.6244C49.8833 43.0683 50.0609 43.5777 50.7761 44.2868C51.979 45.4794 53.3072 45.728 55.1399 45.1037C57.719 44.2253 58.1094 44.045 58.6742 43.4724C60.0039 42.1243 59.5947 40.0747 57.8381 39.2844C57.1297 38.9656 56.4927 38.9812 55.4849 39.342C55.023 39.5073 54.633 39.6255 54.618 39.6043C54.3926 39.2857 53.4233 33.7722 53.2378 31.7534C52.9597 28.7263 52.9622 28.7023 53.4859 29.4356C55.9066 32.8252 56.3106 33.173 57.7102 33.0726C59.7581 32.9256 60.6713 30.7967 59.4493 29.0182C57.3662 25.9864 52.375 19.7974 51.7748 19.5018C51.3532 19.2941 50.9878 19.2736 47.1098 19.2394L42.9022 19.2023L40.4715 17.5612C37.8353 15.7813 37.3042 15.3884 36.3685 14.5272C35.2436 13.4918 34.0837 13.2295 33.0365 13.7734ZM26.3813 13.788C26.1722 13.8816 25.3263 14.581 24.5015 15.3421C22.5021 17.1873 22.1111 17.492 19.3009 19.3947L16.8924 21.0256L12.8389 21.0839C7.65354 21.1585 8.33664 20.861 5.63633 24.2199C3.71464 26.6102 1.34566 29.7056 0.536031 30.8839C-0.716781 32.7072 0.348866 34.9601 2.46406 34.9601C3.63639 34.9601 4.04468 34.6405 5.6341 32.4787C6.18948 31.7232 6.65957 31.1205 6.6786 31.1394C6.69763 31.1583 6.60975 32.275 6.48333 33.6209C6.27149 35.8767 6.11041 36.7421 4.42241 44.6966C2.50413 53.7364 2.47276 53.9425 2.89373 54.7503C3.57224 56.0527 5.15438 56.5401 6.50189 55.8619C7.69243 55.2628 7.57823 55.6189 9.52401 46.4435L11.2544 38.2834L11.7529 38.2476C12.2055 38.215 12.2516 38.2365 12.2524 38.4808C12.253 38.6288 12.3583 39.8518 12.4864 41.1986C12.7555 44.0257 12.7762 45.8475 12.5917 50.4689C12.4394 54.281 12.4695 54.5173 13.2081 55.3125C14.3782 56.5723 16.4316 56.4334 17.3666 55.0312C17.7824 54.4075 17.8542 53.7417 18.0129 49.0325C18.1605 44.6537 18.1632 44.7271 17.6455 38.9248L17.297 35.0184L17.6555 30.8789C17.8526 28.6021 18.0524 26.6227 18.0994 26.4802C18.1545 26.313 19.3313 25.4498 21.4158 24.0472C25.5393 21.2728 25.8706 21.0152 28.4233 18.5987C29.692 17.3978 29.9325 16.9358 29.8536 15.8515C29.7939 15.0331 29.4628 14.474 28.759 14.003C28.1859 13.6196 26.9976 13.5121 26.3813 13.788Z" fill="#964DDF"/>
</svg>
