<svg width="24" height="24" viewBox="0 0 24 24" fill="none" xmlns="http://www.w3.org/2000/svg">
<path d="M2.40039 13.2001C2.40039 12.5374 2.93765 12.0001 3.60039 12.0001H6.00039C6.66313 12.0001 7.20039 12.5374 7.20039 13.2001V19.2001C7.20039 19.8628 6.66313 20.4001 6.00039 20.4001H3.60039C2.93765 20.4001 2.40039 19.8628 2.40039 19.2001V13.2001Z" fill="#AEAFBF"/>
<path d="M9.60039 8.4001C9.60039 7.73736 10.1376 7.2001 10.8004 7.2001H13.2004C13.8631 7.2001 14.4004 7.73736 14.4004 8.4001V19.2001C14.4004 19.8628 13.8631 20.4001 13.2004 20.4001H10.8004C10.1376 20.4001 9.60039 19.8628 9.60039 19.2001V8.4001Z" fill="#AEAFBF"/>
<path d="M16.8004 4.8001C16.8004 4.13736 17.3376 3.6001 18.0004 3.6001H20.4004C21.0631 3.6001 21.6004 4.13736 21.6004 4.8001V19.2001C21.6004 19.8628 21.0631 20.4001 20.4004 20.4001H18.0004C17.3376 20.4001 16.8004 19.8628 16.8004 19.2001V4.8001Z" fill="#AEAFBF"/>
</svg>
