<svg width="24" height="24" viewBox="0 0 24 24" fill="none" xmlns="http://www.w3.org/2000/svg">
<path d="M2.40039 6.0001C2.40039 4.67461 3.47491 3.6001 4.80039 3.6001H13.2004C14.5259 3.6001 15.6004 4.67461 15.6004 6.0001V10.8001C15.6004 12.1256 14.5259 13.2001 13.2004 13.2001H10.8004L7.20039 16.8001V13.2001H4.80039C3.47491 13.2001 2.40039 12.1256 2.40039 10.8001V6.0001Z" fill="#AEAFBF"/>
<path d="M18.0004 8.4001V11.6001C18.0004 13.8092 16.2095 15.6001 14.0004 15.6001H11.7945L9.67446 17.7201C10.0102 17.8988 10.3935 18.0001 10.8004 18.0001H13.2004L16.8004 21.6001V18.0001H19.2004C20.5259 18.0001 21.6004 16.9256 21.6004 15.6001V10.8001C21.6004 9.47461 20.5259 8.4001 19.2004 8.4001H18.0004Z" fill="#AEAFBF"/>
</svg>
