<svg width="52" height="52" viewBox="0 0 52 52" fill="none" xmlns="http://www.w3.org/2000/svg">
<path d="M5.19922 12.9998C5.19922 10.1279 7.52734 7.7998 10.3992 7.7998H28.5992C31.4711 7.7998 33.7992 10.1279 33.7992 12.9998V23.3998C33.7992 26.2717 31.4711 28.5998 28.5992 28.5998H23.3992L15.5992 36.3998V28.5998H10.3992C7.52734 28.5998 5.19922 26.2717 5.19922 23.3998V12.9998Z" fill="#964DDF"/>
<path d="M38.9992 18.1998V29.7998C38.9992 32.0089 37.2084 33.7998 34.9992 33.7998H25.5531L20.9597 38.3932C21.6872 38.7804 22.5176 38.9998 23.3992 38.9998H28.5992L36.3992 46.7998V38.9998H41.5992C44.4711 38.9998 46.7992 36.6717 46.7992 33.7998V23.3998C46.7992 20.5279 44.4711 18.1998 41.5992 18.1998H38.9992Z" fill="#964DDF"/>
</svg>
