<svg width="52" height="52" viewBox="0 0 52 52" fill="none" xmlns="http://www.w3.org/2000/svg">
<path fill-rule="evenodd" clip-rule="evenodd" d="M29.8712 8.24464C28.8857 4.18538 23.1127 4.18538 22.1272 8.24464C21.4907 10.8669 18.4864 12.1113 16.182 10.7072C12.6149 8.53372 8.53274 12.6159 10.7062 16.183C12.1103 18.4874 10.8659 21.4916 8.24367 22.1282C4.1844 23.1137 4.1844 28.8867 8.24367 29.8722C10.8659 30.5088 12.1103 33.513 10.7063 35.8174C8.53274 39.3845 12.6149 43.4667 16.182 41.2932C18.4864 39.8891 21.4907 41.1335 22.1272 43.7557C23.1127 47.815 28.8857 47.815 29.8712 43.7557C30.5078 41.1335 33.5121 39.8891 35.8164 41.2932C39.3836 43.4667 43.4657 39.3845 41.2922 35.8174C39.8881 33.513 41.1325 30.5088 43.7548 29.8722C47.814 28.8867 47.814 23.1137 43.7548 22.1282C41.1325 21.4916 39.8881 18.4874 41.2922 16.183C43.4657 12.6159 39.3836 8.53372 35.8164 10.7072C33.5121 12.1113 30.5078 10.8669 29.8712 8.24464ZM25.9992 33.8002C30.307 33.8002 33.7992 30.308 33.7992 26.0002C33.7992 21.6924 30.307 18.2002 25.9992 18.2002C21.6914 18.2002 18.1992 21.6924 18.1992 26.0002C18.1992 30.308 21.6914 33.8002 25.9992 33.8002Z" fill="#964DDF"/>
</svg>
