<svg width="24" height="24" viewBox="0 0 24 24" fill="none" xmlns="http://www.w3.org/2000/svg">
<path fill-rule="evenodd" clip-rule="evenodd" d="M13.7875 3.80503C13.3326 1.93153 10.6682 1.93153 10.2133 3.80503C9.91951 5.01529 8.53293 5.58964 7.46939 4.94161C5.82301 3.93845 3.93894 5.82252 4.9421 7.4689C5.59012 8.53244 5.01578 9.91902 3.80552 10.2128C1.93201 10.6677 1.93201 13.3321 3.80552 13.787C5.01578 14.0808 5.59012 15.4674 4.9421 16.5309C3.93894 18.1773 5.82301 20.0614 7.46939 19.0582C8.53293 18.4102 9.91951 18.9845 10.2133 20.1948C10.6682 22.0683 13.3326 22.0683 13.7875 20.1948C14.0813 18.9845 15.4679 18.4102 16.5314 19.0582C18.1778 20.0614 20.0618 18.1773 19.0587 16.5309C18.4107 15.4674 18.985 14.0808 20.1953 13.787C22.0688 13.3321 22.0688 10.6677 20.1953 10.2128C18.985 9.91902 18.4107 8.53244 19.0587 7.4689C20.0618 5.82252 18.1778 3.93845 16.5314 4.94161C15.4679 5.58964 14.0813 5.01529 13.7875 3.80503ZM12.0004 15.5999C13.9886 15.5999 15.6004 13.9881 15.6004 11.9999C15.6004 10.0117 13.9886 8.3999 12.0004 8.3999C10.0122 8.3999 8.40039 10.0117 8.40039 11.9999C8.40039 13.9881 10.0122 15.5999 12.0004 15.5999Z" fill="#AEAFBF"/>
</svg>
