<svg width="60" height="60" viewBox="0 0 60 60" fill="none" xmlns="http://www.w3.org/2000/svg">
<path fill-rule="evenodd" clip-rule="evenodd" d="M7.66449 1.8905C5.59415 2.3442 4.00835 4.05633 3.64583 6.22949C3.20169 8.89153 5.03608 11.5981 7.66449 12.1587C8.47618 12.3319 8.43051 12.3706 7.1837 12.5654C4.53024 12.9801 2.01647 14.9704 0.839913 17.5879C0.189106 19.0358 0.0560879 19.7917 0.0560879 20.1901L0 23.527H8.80603H17.6121L17.556 20.1901C17.556 19.4407 17.423 19.0358 16.7722 17.5879C15.5956 14.9704 13.0818 12.9801 10.4284 12.5654C9.18155 12.3706 9.13589 12.3319 9.94758 12.1587C12.576 11.5981 14.4104 8.89153 13.9662 6.22949C13.4576 3.18072 10.6376 1.23908 7.66449 1.8905ZM28.8584 1.8905C26.7881 2.3442 25.2023 4.05633 24.8398 6.22949C24.3957 8.89153 26.23 11.5981 28.8584 12.1587C29.6701 12.3319 29.6245 12.3706 28.3777 12.5654C25.7242 12.9801 23.2104 14.9704 22.0339 17.5879C21.3831 19.0358 21.2501 19.4407 21.2501 20.1901L21.194 23.527H30H38.806L38.7499 20.1901C38.7499 19.4407 38.6169 19.0358 37.9661 17.5879C36.7896 14.9704 34.2758 12.9801 31.6223 12.5654C30.3755 12.3706 30.3298 12.3319 31.1415 12.1587C33.7699 11.5981 35.6043 8.89153 35.1602 6.22949C34.6515 3.18072 31.8316 1.23908 28.8584 1.8905ZM50.0524 1.8905C47.9821 2.3442 46.3963 4.05633 46.0338 6.22949C45.5896 8.89153 47.424 11.5981 50.0524 12.1587C50.8641 12.3319 50.8184 12.3706 49.5716 12.5654C46.9182 12.9801 44.4044 14.9704 43.2278 17.5879C42.577 19.0358 42.444 19.7917 42.444 20.1901L42.3879 23.527H51.194H60L59.9439 20.1901C59.9439 19.7917 59.8109 19.0358 59.1601 17.5879C57.9835 14.9704 55.4698 12.9801 52.8163 12.5654C51.5695 12.3706 51.5238 12.3319 52.3355 12.1587C54.9639 11.5981 56.7983 8.89153 56.3542 6.22949C55.8455 3.18072 53.0255 1.23908 50.0524 1.8905ZM10.6795 29.9374V33.481H15.9488H21.218V29.9374V26.3938H15.9488H10.6795V29.9374ZM28.2436 32.2673V38.1408L27.3643 37.2597L26.485 36.3785L25.2864 37.5876L24.0878 38.7968L27.0438 41.7787L30 44.7607L32.9561 41.7787L35.9122 38.7968L34.7136 37.5876L33.515 36.3785L32.6357 37.2597L31.7564 38.1408V32.2673V26.3938H30H28.2436V32.2673ZM38.782 29.9374V33.481H44.0512H49.3205V29.9374V26.3938H44.0512H38.782V29.9374ZM10.6797 38.1171C10.6799 41.5099 11.3917 44.7335 12.737 47.4358C18.6168 59.2457 33.9859 61.9057 43.3908 52.7412C47.2997 48.9325 49.3199 43.9498 49.3203 38.1171L49.3205 37.0245H44.0512H38.782V38.4821C38.782 43.7083 35.0034 47.6552 30 47.6552C24.9966 47.6552 21.218 43.7083 21.218 38.4821V37.0245H15.9488H10.6795L10.6797 38.1171Z" fill="#964DDF"/>
</svg>
