<svg width="36" height="36" viewBox="0 0 36 36" fill="none" xmlns="http://www.w3.org/2000/svg">
<path fill-rule="evenodd" clip-rule="evenodd" d="M16.2764 1.08224C15.517 1.1582 14.3082 1.38123 13.5901 1.57804C12.8718 1.77485 11.5777 2.27048 10.714 2.67939C9.85049 3.08831 8.65993 3.76865 8.06843 4.19117C7.47693 4.61387 6.45796 5.50362 5.804 6.16867C5.15005 6.83372 4.27883 7.88381 3.86798 8.50248C3.45714 9.12114 2.86211 10.1879 2.54579 10.8731C2.22964 11.5583 1.81914 12.6783 1.63395 13.3619C1.44859 14.0454 1.21168 15.3197 1.10759 16.1935C1.00282 17.0708 0.968737 18.3501 1.03136 19.0506C1.09365 19.7483 1.25483 20.8655 1.38965 21.5332C1.52431 22.2011 1.82182 23.2458 2.05083 23.8549C2.27984 24.464 2.66483 25.3546 2.90627 25.8339C3.14771 26.3134 3.72124 27.2521 4.18094 27.92C4.64065 28.5879 5.56122 29.6521 6.22677 30.2849C6.89215 30.9177 8.03015 31.8252 8.7553 32.3019C9.48062 32.7785 10.6091 33.3913 11.263 33.6636C11.917 33.936 13.0565 34.321 13.7952 34.5194C14.6347 34.7446 15.8939 34.9143 17.1532 34.972C18.609 35.0385 19.5954 34.9893 20.7089 34.7945C21.5566 34.6463 22.6144 34.4031 23.0595 34.2542C23.5047 34.1051 24.3979 33.7528 25.0443 33.4713C25.6907 33.1899 26.7485 32.6155 27.3949 32.195C28.0413 31.7745 29.2555 30.7456 30.0932 29.9084C30.9731 29.0291 31.9565 27.8344 32.4219 27.0795C32.865 26.3606 33.4503 25.2262 33.7224 24.5584C33.9948 23.8907 34.3643 22.7393 34.544 21.9998C34.7236 21.2602 34.9152 19.8611 34.9697 18.8905C35.0403 17.6355 34.9897 16.6444 34.795 15.4597C34.6444 14.5434 34.3245 13.2198 34.0844 12.5185C33.8442 11.8171 33.4595 10.8652 33.2297 10.403C32.9998 9.94081 32.4726 9.04853 32.0579 8.42012C31.6432 7.79171 30.7114 6.68431 29.9871 5.95943C29.2629 5.23438 28.1566 4.30159 27.5289 3.88646C26.9011 3.47133 26.0097 2.9436 25.548 2.71351C25.0863 2.48343 24.1379 2.09922 23.4404 1.85989C22.7428 1.62056 21.6473 1.34997 21.0059 1.25888C20.3644 1.16761 19.3484 1.05955 18.7482 1.01871C18.148 0.977697 17.0356 1.00644 16.2764 1.08224ZM21.6864 5.45119C22.3328 5.65421 23.2394 6.01069 23.7012 6.24346C24.1629 6.47624 24.8806 6.89591 25.2962 7.17608C25.7117 7.45642 26.4295 8.03188 26.8912 8.45508C27.3529 8.87828 28.0584 9.64097 28.459 10.1499C28.8596 10.6588 29.3979 11.4912 29.6553 11.9997C29.9125 12.5081 30.2963 13.4661 30.5084 14.1284C30.8751 15.2741 30.8799 15.3541 30.6096 15.7671C30.4224 16.0531 30.1736 16.2014 29.8808 16.2014C29.6362 16.2014 29.2962 16.0747 29.1252 15.9197C28.9542 15.7647 28.6929 15.2165 28.5447 14.7012C28.3964 14.1859 28.0643 13.3484 27.8066 12.84C27.5489 12.3316 26.9711 11.4635 26.5227 10.9111C26.0742 10.3585 25.3316 9.62181 24.8722 9.27391C24.4129 8.92601 23.6073 8.41189 23.0823 8.13155C22.5573 7.85104 21.544 7.47221 20.8308 7.28952C20.0284 7.08414 18.9784 6.95759 18.0766 6.95759C17.192 6.95759 16.1268 7.08364 15.3659 7.27843C14.6765 7.4549 13.6255 7.83104 13.0305 8.11407C12.4353 8.39726 11.4828 9.0124 10.9136 9.48131C10.3446 9.95005 9.58169 10.7279 9.21819 11.2097C8.85486 11.6914 8.41833 12.3499 8.24842 12.6729C8.07834 12.996 7.70695 13.903 7.42304 14.6888C6.91145 16.1046 6.90138 16.1178 6.28956 16.1689C5.78419 16.2111 5.62217 16.1437 5.39484 15.7965C5.13359 15.3972 5.13896 15.3061 5.4897 14.2323C5.69454 13.6052 6.15726 12.5175 6.51807 11.8153C6.90927 11.0538 7.65356 10.0174 8.36208 9.24769C9.01554 8.53794 10.0142 7.62801 10.5813 7.22566C11.1485 6.8233 12.1414 6.26397 12.7879 5.98262C13.4343 5.70127 14.492 5.3532 15.1384 5.209C15.9797 5.02143 16.9099 4.96614 18.4124 5.01454C19.9554 5.06429 20.8224 5.17992 21.6864 5.45119ZM18.375 9.7403C18.6881 9.9598 18.7482 10.1596 18.7482 10.982C18.7482 11.9588 18.75 11.9627 19.3051 12.0669C19.6114 12.1244 20.1622 12.3662 20.5292 12.6045C20.8961 12.8427 21.378 13.3027 21.5998 13.6267C21.8793 14.0353 22.0252 14.5234 22.0756 15.2188C22.1283 15.9494 22.0657 16.4046 21.8446 16.8952L21.5413 17.5684L21.9797 17.9353C22.221 18.1372 22.5744 18.5669 22.7653 18.8905C23.0032 19.2937 23.1125 19.7713 23.1129 20.4095C23.1134 21.0444 22.9935 21.5755 22.7358 22.0804C22.5279 22.4875 22.084 23.0386 21.749 23.3051C21.2989 23.6633 20.8284 23.8379 19.9441 23.9751L18.7482 24.1603V25.0428C18.7482 25.621 18.6572 26.0164 18.4844 26.1895C18.3392 26.3348 18.0514 26.4536 17.8449 26.4536C17.6382 26.4536 17.3296 26.3514 17.1592 26.2267C16.9423 26.0679 16.8256 25.7146 16.7705 25.0502L16.6918 24.1006H15.8678C15.4144 24.1006 14.7862 23.9929 14.4714 23.8613C14.0283 23.6759 13.876 23.4957 13.7961 23.063C13.7395 22.7556 13.716 20.2996 13.7442 17.6053C13.7915 13.0647 13.8186 12.6808 14.1151 12.3531C14.3797 12.0607 14.6297 11.9997 15.5634 11.9997H16.6918L16.7682 11.0778C16.8152 10.5102 16.9623 10.026 17.1508 9.81728C17.3192 9.63106 17.5796 9.47862 17.7294 9.47862C17.8793 9.47862 18.1698 9.59644 18.375 9.7403ZM6.77865 19.9844C6.99053 20.133 7.25564 20.6377 7.41867 21.2029C7.57179 21.7335 7.97256 22.6972 8.3092 23.3443C8.71282 24.1203 9.37937 24.9855 10.2669 25.8857C11.3616 26.9959 11.8787 27.3768 13.0397 27.9274C13.8246 28.2995 14.8824 28.7007 15.3903 28.8188C15.8981 28.937 17.0315 29.0356 17.9087 29.0383C18.786 29.0408 19.9193 28.9422 20.4272 28.8191C20.9351 28.6961 21.7997 28.4089 22.3484 28.181C22.8973 27.9531 23.7702 27.4785 24.2881 27.1264C24.8061 26.7741 25.6587 26.0226 26.1825 25.4561C26.7064 24.8897 27.3397 24.0767 27.5898 23.6495C27.84 23.2221 28.2762 22.2302 28.5593 21.4448C28.8423 20.6596 29.1944 19.9416 29.3417 19.8491C29.4891 19.7569 29.8126 19.7323 30.0609 19.7947C30.3093 19.857 30.594 20.0876 30.6939 20.3068C30.8373 20.6218 30.7958 20.9475 30.4968 21.8569C30.2886 22.49 29.9075 23.4302 29.6501 23.946C29.3925 24.4616 28.9031 25.2557 28.5623 25.7107C28.2215 26.1655 27.6306 26.8665 27.249 27.2684C26.8675 27.6704 26.0265 28.3583 25.3801 28.7971C24.7337 29.236 23.7515 29.7928 23.1975 30.0348C22.6434 30.2768 21.699 30.6029 21.0988 30.7593C20.3585 30.9524 19.3593 31.0424 17.9927 31.039C16.491 31.0351 15.6757 30.9477 14.791 30.6956C14.1382 30.5096 13.0427 30.0943 12.3565 29.7728C11.6703 29.4513 10.621 28.8186 10.0244 28.367C9.42806 27.9154 8.49506 27.0166 7.95107 26.3695C7.40709 25.7225 6.71569 24.7015 6.41465 24.1006C6.11361 23.4998 5.70327 22.509 5.50263 21.8987C5.22745 21.0621 5.17775 20.6841 5.30015 20.3618C5.38947 20.1266 5.5619 19.8944 5.68329 19.8458C5.80468 19.7972 6.01942 19.7513 6.16045 19.7441C6.30165 19.7369 6.57969 19.8449 6.77865 19.9844Z" fill="white"/>
</svg>
