<svg width="36" height="36" viewBox="0 0 36 36" fill="none" xmlns="http://www.w3.org/2000/svg">
<path d="M34.344 4.42328H32.6593L35.0645 1.99703C35.4566 1.60156 35.4566 0.949571 35.0645 0.543414C34.6725 0.147946 34.0261 0.147946 33.6235 0.543414L31.2819 2.90554V1.27022C31.2819 0.703739 30.8263 0.244141 30.2647 0.244141C29.7031 0.244141 29.2475 0.703739 29.2475 1.27022V4.95769L27.5946 6.63576C26.588 6.24029 25.4861 6.02653 24.3524 6.02653C21.9578 6.02653 19.7009 6.95641 18.0162 8.62379C16.3315 6.95641 14.0746 6.02653 11.68 6.02653C6.66832 6.02653 2.59961 10.1415 2.59961 15.1864C2.59961 18.1043 4.72932 21.5567 8.94637 25.4579L14.1488 20.2099C13.9051 20.1137 13.6508 20.0496 13.3859 20.0175C12.8244 19.9534 12.4323 19.4404 12.4959 18.8846C12.5595 18.3288 13.0681 17.9226 13.619 17.9868C15.6322 18.2219 17.3063 19.6328 17.8891 21.5887C18.048 22.1338 17.7513 22.7003 17.2109 22.8713C17.1156 22.9034 17.0096 22.9141 16.9143 22.9141C16.4798 22.9141 16.0772 22.6255 15.9395 22.1873C15.8759 21.9735 15.7805 21.7597 15.6746 21.5674L10.4615 26.826C14.0534 29.8829 17.4758 32.0205 17.5076 32.0419C17.6665 32.1381 17.8361 32.1809 18.0162 32.1809C18.1963 32.1809 18.3659 32.1381 18.5248 32.0419C18.5566 32.0205 22.2756 29.7119 25.9311 26.5374C30.911 22.2193 33.4434 18.4036 33.4434 15.1971C33.4434 12.0654 31.8752 9.29716 29.4912 7.64047L30.6461 6.47544H34.3652C34.9268 6.47544 35.3824 6.01584 35.3824 5.44936C35.3612 4.88288 34.9056 4.42328 34.344 4.42328Z" fill="white"/>
<path d="M8.9236 25.4688L2.68279 31.7642V28.0767C2.68279 27.5102 2.22718 27.0506 1.66562 27.0506C1.10405 27.0506 0.648438 27.5102 0.648438 28.0767V34.2332C0.648438 34.4149 0.69082 34.5752 0.775584 34.7248C0.945114 35.0455 1.28417 35.2593 1.66562 35.2593H7.76868C8.33025 35.2593 8.78586 34.7997 8.78586 34.2332C8.78586 33.6667 8.33025 33.2071 7.76868 33.2071H4.13439L10.4494 26.8369C10.3328 26.73 10.2057 26.6231 10.0785 26.5269C9.67589 26.1528 9.29445 25.8108 8.9236 25.4688Z" fill="white"/>
</svg>
