<svg width="60" height="60" viewBox="0 0 60 60" fill="none" xmlns="http://www.w3.org/2000/svg">
<path fill-rule="evenodd" clip-rule="evenodd" d="M23.1696 0.263672C23.1391 0.408633 23.0289 1.44797 22.9248 2.5732C22.8206 3.69844 22.714 4.65363 22.6879 4.69582C22.6618 4.73801 22.3883 4.84231 22.0804 4.92773C21.1839 5.17605 19.3567 5.91234 18.2152 6.48516L17.1606 7.01438L15.4309 5.61656C14.4794 4.84781 13.6658 4.21875 13.6227 4.21875C13.5796 4.21875 11.411 6.35098 8.80361 8.95699C5.21998 12.5387 4.09155 13.7329 4.18033 13.8496C4.24483 13.9344 4.89419 14.733 5.62318 15.6241L6.94876 17.2444L6.30233 18.6124C5.63338 20.0284 5.17835 21.1748 4.86417 22.2363C4.76389 22.5746 4.64439 22.8517 4.59853 22.8519C4.55268 22.852 3.53882 22.9567 2.34553 23.0844C1.15224 23.212 0.136275 23.3174 0.0879575 23.3184C0.0396395 23.3195 0 26.3515 0 30.0564V36.7924L0.263872 36.8456C0.408944 36.8749 1.45013 36.9857 2.57739 37.0917C4.91717 37.3119 4.7646 37.2671 4.87261 37.765C5.00889 38.3937 5.91485 40.654 6.48598 41.7904L7.02182 42.8565L5.62189 44.5845C4.85197 45.5347 4.22196 46.3468 4.22196 46.3891C4.22196 46.4313 6.35581 48.5977 8.96381 51.2031C12.5482 54.784 13.7433 55.9116 13.8601 55.8228C13.945 55.7584 14.7443 55.1095 15.636 54.3811L17.2575 53.0565L18.6266 53.7025C19.9478 54.3257 20.9567 54.7246 22.2532 55.1359C22.5918 55.2434 22.8699 55.393 22.8711 55.4684C22.8722 55.5438 22.9768 56.5547 23.1035 57.7148C23.2302 58.875 23.3348 59.8637 23.3359 59.9121C23.3371 59.9605 25.2379 60 27.56 60H31.782V56.4258V52.8516H35.5209H39.2598L39.5926 53.5091C40.5686 55.4366 42.8871 56.6142 45.0049 56.2581C49.2366 55.5465 50.9174 50.4151 47.9049 47.4049C45.4284 44.9303 41.1593 45.5843 39.5926 48.6784L39.2598 49.3359H35.5209H31.782V47.5929V45.8498L29.7589 45.7917C26.9669 45.7116 25.199 45.2864 22.9276 44.1491C15.9422 40.6515 12.519 32.4804 14.9552 25.119C17.1539 18.4754 23.125 14.1797 30.1607 14.1797H31.782V12.4219V10.6641H35.5209H39.2598L39.5926 11.3216C40.5686 13.2491 42.8871 14.4267 45.0049 14.0706C49.2366 13.359 50.9174 8.22762 47.9049 5.21742C45.4284 2.74277 41.1593 3.3968 39.5926 6.4909L39.2598 7.14844H35.5209H31.782V3.57422V0H27.5036H23.2252L23.1696 0.263672ZM53.6249 10.8417C51.5825 11.2852 49.9724 12.994 49.6039 15.1092C49.5318 15.5238 49.5032 16.0256 49.5405 16.2244L49.6084 16.5857L46.7055 18.0214L43.8028 19.4573L35.4175 19.4929C26.2086 19.5319 26.4501 19.5145 24.5516 20.2721C20.8589 21.7459 18.2751 25.1488 17.8223 29.1348C17.1912 34.6901 21.1709 39.73 26.736 40.4231C27.3469 40.4992 30.8372 40.5469 35.7949 40.5469H43.8602L46.7342 41.9814L49.608 43.4157L49.5403 43.7763C49.2314 45.4218 50.6669 47.8739 52.4425 48.7341C56.9486 50.9169 61.6278 46.2412 59.4433 41.7386C58.0265 38.8182 54.0731 37.9163 51.5622 39.9403L51.1122 40.3031L47.9266 38.6965L44.741 37.0898L35.7107 37.0312L26.6804 36.9727L25.7422 36.5921C20.2955 34.3833 19.6218 27.202 24.561 24.0016C26.1202 22.9914 25.6334 23.0363 35.7694 22.9693L44.741 22.9102L47.9266 21.3035L51.1122 19.6969L51.5622 20.0597C54.0731 22.0837 58.0265 21.1818 59.4433 18.2614C61.3705 14.2891 57.9336 9.90645 53.6249 10.8417ZM53.6249 24.9042C52.1874 25.2163 50.8086 26.2792 50.1475 27.5847L49.8147 28.2422H38.1596H26.5045V30V31.7578H38.1596H49.8147L50.1475 32.4154C51.7142 35.5095 55.9833 36.1635 58.4598 33.6888C62.1362 30.0154 58.715 23.7994 53.6249 24.9042Z" fill="#964DDF"/>
</svg>
