<svg width="61" height="61" viewBox="0 0 61 61" fill="none" xmlns="http://www.w3.org/2000/svg">
<path fill-rule="evenodd" clip-rule="evenodd" d="M2.14233 0.48829C1.66653 0.631364 1.15785 1.15855 1.02223 1.64894C0.958903 1.87814 0.906775 3.29178 0.906425 4.79014L0.905726 7.51453H20.2641H39.6225V3.9406V0.366658L21.0513 0.376735C10.837 0.382243 2.3281 0.432513 2.14233 0.48829ZM43.121 3.9406V7.51453H44.8702H46.6195V3.9406V0.366658H44.8702H43.121V3.9406ZM50.118 3.9406V7.51453H51.8672H53.6165V3.9406V0.366658H51.8672H50.118V3.9406ZM57.115 3.927V7.51453H58.8715H60.6281L60.5916 4.53481C60.5574 1.73917 60.5404 1.53504 60.3147 1.23179C59.8102 0.553324 59.5295 0.436848 58.278 0.386344L57.115 0.339355V3.927ZM0.933131 26.2545C0.963917 41.4244 0.96485 41.4803 1.2045 41.8027C1.85324 42.6756 1.01768 42.6057 11.2164 42.6414L20.3439 42.6735L23.4439 37.4807C26.829 31.8099 27.083 31.4733 28.4596 30.8303C30.5372 29.8601 33.0704 30.3098 34.5584 31.9132C34.9089 32.2909 36.3326 34.5078 38.212 37.6029L41.2913 42.6735L50.3608 42.6415C60.4942 42.6057 59.6662 42.6754 60.3147 41.8027C60.5544 41.4803 60.5553 41.4244 60.5861 26.2545L60.6169 11.0299H30.7596H0.902344L0.933131 26.2545ZM52.772 14.779C53.8984 15.4691 53.8984 17.1367 52.772 17.8268C52.1733 18.1937 9.34586 18.1937 8.74715 17.8268C8.21561 17.5013 7.90354 16.9375 7.90354 16.3029C7.90354 15.6683 8.21561 15.1045 8.74715 14.779C9.34586 14.4121 52.1733 14.4121 52.772 14.779ZM52.772 21.8097C53.8984 22.4998 53.8984 24.1674 52.772 24.8575C52.1733 25.2244 9.34586 25.2244 8.74715 24.8575C8.21561 24.532 7.90354 23.9682 7.90354 23.3336C7.90354 22.699 8.21561 22.1352 8.74715 21.8097C9.34586 21.4428 52.1733 21.4428 52.772 21.8097ZM21.1689 28.8404C22.2953 29.5305 22.2953 31.1981 21.1689 31.8882C20.8031 32.1124 20.571 32.1212 14.958 32.1212C8.43718 32.1212 8.66692 32.1496 8.13538 31.2735C7.65014 30.4739 7.93596 29.3373 8.74715 28.8404C9.33875 28.4778 20.5773 28.4778 21.1689 28.8404ZM52.772 28.8404C53.8984 29.5305 53.8984 31.1981 52.772 31.8882C52.1806 32.2506 41.0584 32.2506 40.4669 31.8882C39.3405 31.1981 39.3405 29.5305 40.4669 28.8404C41.0584 28.478 52.1806 28.478 52.772 28.8404ZM30.0016 34.0375C29.4875 34.275 29.5875 34.1209 25.4703 41.0285C21.3325 47.9709 21.4013 47.8232 21.8678 48.7613C22.2587 49.5477 22.7926 49.6987 25.1817 49.6987H27.2512L27.2852 54.436C27.3231 59.6898 27.285 59.4335 28.1223 60.0617C28.6158 60.4319 32.9034 60.4319 33.3969 60.0617C34.2342 59.4335 34.1961 59.6898 34.234 54.436L34.268 49.6987H36.3958C38.8452 49.6987 39.3679 49.5538 39.7747 48.7613C40.2445 47.846 40.2524 47.8625 35.9969 40.8501C33.8109 37.2481 31.9638 34.3277 31.7886 34.1971C31.3957 33.9037 30.4702 33.8211 30.0016 34.0375Z" fill="white"/>
</svg>
