<svg width="24" height="24" viewBox="0 0 24 24" fill="none" xmlns="http://www.w3.org/2000/svg">
<path fill-rule="evenodd" clip-rule="evenodd" d="M4.89994 10.7999H7.23475C7.34179 8.94423 7.69512 7.23479 8.24012 5.85864C6.50141 6.92552 5.25055 8.71008 4.89994 10.7999ZM12.0004 2.3999C6.69846 2.3999 2.40039 6.69797 2.40039 11.9999C2.40039 17.3018 6.69846 21.5999 12.0004 21.5999C17.3023 21.5999 21.6004 17.3018 21.6004 11.9999C21.6004 6.69797 17.3023 2.3999 12.0004 2.3999ZM12.0004 4.7999C11.9091 4.7999 11.7218 4.83797 11.442 5.11411C11.1571 5.39534 10.8454 5.86179 10.5578 6.53291C10.0914 7.62123 9.75028 9.1026 9.63923 10.7999H14.3615C14.2505 9.1026 13.9094 7.62123 13.443 6.53291C13.1554 5.86179 12.8437 5.39534 12.5588 5.11411C12.2789 4.83797 12.0917 4.7999 12.0004 4.7999ZM16.766 10.7999C16.659 8.94423 16.3057 7.23479 15.7607 5.85864C17.4994 6.92552 18.7502 8.71008 19.1008 10.7999H16.766ZM14.3615 13.1999H9.63923C9.75028 14.8972 10.0914 16.3786 10.5578 17.4669C10.8454 18.138 11.1571 18.6045 11.442 18.8857C11.7218 19.1618 11.9091 19.1999 12.0004 19.1999C12.0917 19.1999 12.2789 19.1618 12.5588 18.8857C12.8437 18.6045 13.1554 18.138 13.443 17.4669C13.9094 16.3786 14.2505 14.8972 14.3615 13.1999ZM15.7607 18.1412C16.3057 16.765 16.659 15.0556 16.766 13.1999H19.1008C18.7502 15.2897 17.4994 17.0743 15.7607 18.1412ZM8.24012 18.1412C7.69513 16.765 7.34179 15.0556 7.23475 13.1999H4.89994C5.25055 15.2897 6.50141 17.0743 8.24012 18.1412Z" fill="#AEAFBF"/>
</svg>
