<svg width="52" height="52" viewBox="0 0 52 52" fill="none" xmlns="http://www.w3.org/2000/svg">
<path fill-rule="evenodd" clip-rule="evenodd" d="M10.6149 23.4002H15.6737C15.9056 19.3796 16.6711 15.6758 17.852 12.6941C14.0848 15.0057 11.3746 18.8722 10.6149 23.4002ZM25.9992 5.2002C14.5117 5.2002 5.19922 14.5127 5.19922 26.0002C5.19922 37.4877 14.5117 46.8002 25.9992 46.8002C37.4867 46.8002 46.7992 37.4877 46.7992 26.0002C46.7992 14.5127 37.4867 5.2002 25.9992 5.2002ZM25.9992 10.4002C25.8015 10.4002 25.3957 10.4827 24.7894 11.081C24.172 11.6903 23.4967 12.7009 22.8736 14.155C21.863 16.5131 21.124 19.7227 20.8834 23.4002H31.1151C30.8745 19.7227 30.1355 16.5131 29.1249 14.155C28.5017 12.7009 27.8264 11.6903 27.209 11.081C26.6028 10.4827 26.1969 10.4002 25.9992 10.4002ZM36.3248 23.4002C36.0928 19.3796 35.3273 15.6758 34.1465 12.6941C37.9137 15.0057 40.6239 18.8722 41.3835 23.4002H36.3248ZM31.1151 28.6002H20.8834C21.124 32.2777 21.863 35.4873 22.8736 37.8453C23.4967 39.2994 24.172 40.3101 24.7894 40.9194C25.3957 41.5177 25.8015 41.6002 25.9992 41.6002C26.1969 41.6002 26.6028 41.5177 27.209 40.9194C27.8264 40.3101 28.5017 39.2994 29.1249 37.8453C30.1355 35.4873 30.8745 32.2777 31.1151 28.6002ZM34.1465 39.3063C35.3273 36.3246 36.0928 32.6208 36.3248 28.6002H41.3835C40.6239 33.1281 37.9137 36.9947 34.1465 39.3063ZM17.852 39.3063C16.6711 36.3246 15.9056 32.6208 15.6737 28.6002H10.6149C11.3746 33.1281 14.0848 36.9947 17.852 39.3063Z" fill="#964DDF"/>
</svg>
