<svg width="60" height="60" viewBox="0 0 60 60" fill="none" xmlns="http://www.w3.org/2000/svg">
<path fill-rule="evenodd" clip-rule="evenodd" d="M35.8684 0.0517191C30.3044 0.585982 26.3578 3.68069 24.8209 8.71419C24.1927 10.7718 24.1528 11.2186 24.0992 16.7979L24.0493 21.9892H19.5247H15V27.2685V32.5478H19.5331H24.0661V46.2739V60H29.4021H34.738L34.7672 46.3032L34.7963 32.6064L39.3007 32.5757C42.1103 32.5566 43.8051 32.5022 43.8051 32.4314C43.8051 32.3689 44.0891 30.0791 44.4362 27.343C44.7834 24.6068 45.0674 22.2835 45.0674 22.18C45.0674 22.0103 44.5572 21.9886 39.9319 21.9611L34.7963 21.9306L34.7638 18.6457C34.7145 13.6386 34.9289 12.2189 35.8868 11.2098C36.9573 10.0822 37.7869 9.91024 42.1697 9.90754L45.5265 9.90554V5.16452V0.423497L45.0961 0.358269C43.391 0.100054 37.4282 -0.098095 35.8684 0.0517191Z" fill="white"/>
</svg>
