<svg width="52" height="52" viewBox="0 0 52 52" fill="none" xmlns="http://www.w3.org/2000/svg">
<path fill-rule="evenodd" clip-rule="evenodd" d="M30.5684 5.28731C31.2891 5.47872 31.893 5.97042 32.2265 6.63745C33.4838 9.15197 34.4221 10.6781 35.3662 11.9155C36.3217 13.168 37.3325 14.1933 38.8701 15.7309C42.4234 19.2842 44.2008 23.9465 44.2008 28.6003C44.2008 33.254 42.4234 37.9164 38.8701 41.4696C31.7626 48.5771 20.239 48.5771 13.1314 41.4696C9.57818 37.9163 7.80079 33.254 7.80078 28.6003C7.80077 23.9465 9.57817 19.2842 13.1314 15.7309C13.875 14.9873 14.9933 14.7649 15.9649 15.1673C16.9364 15.5697 17.5699 16.5178 17.5699 17.5694C17.5699 20.4809 17.7517 22.6994 18.6033 24.4689C19.0715 25.4419 19.802 26.3932 21.0609 27.2421C21.3616 24.4841 21.9123 21.1238 22.6565 17.9344C23.2425 15.4233 23.9712 12.9163 24.8386 10.8257C25.2724 9.78005 25.763 8.7844 26.3202 7.92475C26.8625 7.08799 27.5594 6.2365 28.4588 5.63688C29.0793 5.2232 29.8476 5.0959 30.5684 5.28731ZM31.5162 39.3156C28.4701 42.3617 23.5314 42.3617 20.4853 39.3156C18.9623 37.7926 18.2008 35.7964 18.2008 33.8002C18.2008 33.8002 20.4853 35.1002 24.7009 35.1002C24.7009 32.5002 26.0009 24.7002 27.9509 23.4002C29.2509 26.0002 29.9932 26.7617 31.5162 28.2848C33.0393 29.8078 33.8008 31.804 33.8008 33.8002C33.8008 35.7964 33.0393 37.7926 31.5162 39.3156Z" fill="#964DDF"/>
</svg>
