<svg width="36" height="36" viewBox="0 0 36 36" fill="none" xmlns="http://www.w3.org/2000/svg">
<path d="M18 1C8.62719 1 1 8.62719 1 18C1 27.3728 8.62719 35 18 35C27.3728 35 35 27.3728 35 18C35 8.62719 27.3728 1 18 1ZM16.6313 2.31914H19.2695V4.95741H16.6313V2.31914ZM29.8722 18C29.8722 24.5461 24.5461 29.8722 18 29.8722C11.4539 29.8722 6.12777 24.5461 6.12777 18C6.12777 11.4539 11.4539 6.12777 18 6.12777C24.5461 6.12777 29.8722 11.4539 29.8722 18ZM7.84364 5.979L9.70828 7.84364L7.84364 9.70829L5.979 7.84364L7.84364 5.979ZM4.90782 19.3191H2.27946V16.6809H4.91774V19.3191H4.90782ZM7.84364 30.0111L5.979 28.1464L7.84364 26.2818L9.70828 28.1464L7.84364 30.0111ZM19.2695 33.6709H16.6313V31.0327H19.2695V33.6709ZM28.1564 30.0111L26.2917 28.1464L28.1564 26.2818L30.021 28.1464L28.1564 30.0111ZM28.1564 9.70829L26.2917 7.84364L28.1564 5.979L30.021 7.84364L28.1564 9.70829ZM30.993 19.3191V16.6809H33.6313V19.3191H30.993Z" fill="white"/>
<path d="M8 18C8 23.5179 12.4923 28 18 28C23.5077 28 28 23.5077 28 18C28 12.4923 23.5077 8 18 8C12.4923 8 8 12.482 8 18ZM22.7897 17.1487C23.2615 17.9179 23.4154 18.5949 23.4154 19.4051C23.4154 21.4051 22 22.4923 20.3897 22.4923C19.2923 22.4923 18.6667 21.9692 18.3282 21.5385L18.9128 23.6H17.0872L17.6513 21.5897C17.3026 22.0103 16.6872 22.5333 15.6308 22.5333C14.0205 22.5333 12.6051 21.4359 12.6051 19.4359C12.6051 18.6256 12.7487 17.9179 13.2205 17.159C13.959 15.959 18.0205 12.5128 18.0205 12.5128C18.0205 12.5128 22.0513 15.9487 22.7897 17.1487Z" fill="white"/>
</svg>
