<svg width="60" height="60" viewBox="0 0 60 60" fill="none" xmlns="http://www.w3.org/2000/svg">
<path fill-rule="evenodd" clip-rule="evenodd" d="M27.8349 0.953348C12.6307 2.04473 0.882812 14.7151 0.882812 30.0216C0.882812 46.1986 13.785 59.1176 29.941 59.1176C43.3092 59.1176 54.7881 50.2084 58.1221 37.2453C58.8235 34.5177 58.9797 33.0618 59.0528 28.5681L59.1181 24.5498H44.5295H29.941V30.0216V35.4933H38.4728C43.1653 35.4933 47.03 35.5347 47.0612 35.5852C47.0924 35.6358 46.9173 36.1764 46.6721 36.7867C41.8596 48.7609 26.3151 51.9257 17.1903 42.7889C8.89576 34.4837 10.5817 20.6965 20.6461 14.5285C26.507 10.9365 34.3719 11.1364 40.0163 15.0205C40.5171 15.3652 40.9588 15.6112 40.9978 15.5672C41.3697 15.1477 47.5867 6.98023 47.5853 6.91297C47.5825 6.78085 45.7577 5.52657 44.4792 4.77809C39.6178 1.93188 33.5683 0.541828 27.8349 0.953348Z" fill="white"/>
</svg>
