<svg width="24" height="24" viewBox="0 0 24 24" fill="none" xmlns="http://www.w3.org/2000/svg">
<path d="M12.8489 2.75137C12.3803 2.28275 11.6205 2.28275 11.1519 2.75137L2.75186 11.1514C2.28323 11.62 2.28323 12.3798 2.75186 12.8484C3.22049 13.3171 3.98029 13.3171 4.44892 12.8484L4.80039 12.497V20.3999C4.80039 21.0626 5.33765 21.5999 6.00039 21.5999H8.40039C9.06313 21.5999 9.60039 21.0626 9.60039 20.3999V17.9999C9.60039 17.3372 10.1376 16.7999 10.8004 16.7999H13.2004C13.8631 16.7999 14.4004 17.3372 14.4004 17.9999V20.3999C14.4004 21.0626 14.9376 21.5999 15.6004 21.5999H18.0004C18.6631 21.5999 19.2004 21.0626 19.2004 20.3999V12.497L19.5519 12.8484C20.0205 13.3171 20.7803 13.3171 21.2489 12.8484C21.7175 12.3798 21.7175 11.62 21.2489 11.1514L12.8489 2.75137Z" fill="#AEAFBF"/>
</svg>
