<svg width="60" height="60" viewBox="0 0 60 60" fill="none" xmlns="http://www.w3.org/2000/svg">
<path fill-rule="evenodd" clip-rule="evenodd" d="M10.7635 0.160582C10.009 0.355771 9.43875 0.799912 9.10368 1.45362L8.82422 1.9989V21.1183V40.2377L9.08004 40.6943C9.37637 41.2234 9.72522 41.5515 10.3095 41.8509C10.707 42.0547 11.2197 42.064 21.9537 42.064H33.1822L33.6574 41.8183C34.2544 41.5096 34.597 41.1592 34.8696 40.5785C35.0613 40.1704 35.0872 39.6601 35.1218 35.6148C35.1429 33.135 35.1257 30.8359 35.0834 30.5056C34.9477 29.446 34.1852 28.9174 33.3031 29.2715C32.6805 29.5214 32.6041 29.7715 32.5333 31.7909L32.4692 33.6173L21.924 33.6464L11.3788 33.6756V18.4364V3.19743L16.696 3.17642C19.6205 3.1649 22.2805 3.15907 22.6072 3.16364C22.934 3.16821 25.3 3.17768 27.865 3.18476L32.5286 3.19743L32.5294 9.21861C32.5301 15.7854 32.5465 15.9704 33.1597 16.3297C33.7301 16.6639 34.1493 16.6164 34.6199 16.1644L35.0238 15.7763L35.0278 13.7388C35.0492 2.41119 35.0382 1.91671 34.7552 1.3873C34.4118 0.745121 33.7077 0.263313 32.8987 0.117093C31.8974 -0.0639426 11.4763 -0.0238778 10.7635 0.160582ZM30.6635 19.3656C28.9342 19.954 28.1341 22.1252 29.0261 23.8081C29.5685 24.8311 29.6714 24.8852 35.4397 27.1777C36.42 27.5673 37.2655 27.9229 37.3185 27.968C37.9121 28.4712 38.1131 39.7783 37.5541 41.22C37.0661 42.4785 36.0743 43.6073 34.9947 44.1328C33.8056 44.7118 33.3611 44.7423 26.113 44.7445L19.4002 44.7465L24.3307 49.4951C27.6026 52.6466 29.4209 54.3159 29.7364 54.458C30.3155 54.7189 31.1954 54.7378 31.7898 54.5019C32.2681 54.3123 44.6197 42.5699 45.2335 41.7216C46.3101 40.2333 46.5454 38.4428 46.0184 35.7462C45.4451 32.8116 43.9113 25.285 43.7819 24.771C43.5429 23.8217 42.6379 23.1204 40.6678 22.3578C39.7529 22.0036 37.828 21.2394 36.3903 20.6597C32.3735 19.0398 31.9212 18.9375 30.6635 19.3656ZM26.1591 36.7085C26.265 36.9737 26.2436 38.7296 26.1324 38.898C26.0579 39.0106 25.128 39.0356 21.8864 39.0121L17.7357 38.9821L17.7012 37.9063C17.6823 37.3145 17.694 36.7624 17.7272 36.6792C17.8264 36.4308 26.0597 36.4594 26.1591 36.7085ZM48.2128 43.4996C47.6568 43.7408 35.7246 55.047 35.0686 55.9541C33.6423 57.9263 35.5491 60.4769 38.0358 59.923C38.6326 59.7901 38.8054 59.636 44.9861 53.722C48.4723 50.3863 51.4589 47.4567 51.6232 47.2118C53.0162 45.1349 50.5728 42.4754 48.2128 43.4996Z" fill="white"/>
</svg>
