<svg width="932" height="1188" viewBox="0 0 932 1188" fill="none" xmlns="http://www.w3.org/2000/svg">
<g filter="url(#filter0_f_664_1081)">
<path d="M614.488 335.59C770.475 335.59 896.928 457.417 896.928 607.699C896.928 757.98 770.475 879.808 614.488 879.808C458.501 879.808 332.049 757.98 332.049 607.699C332.049 457.417 458.501 335.59 614.488 335.59Z" fill="url(#paint0_radial_664_1081)" fill-opacity="0.1"/>
</g>
<g filter="url(#filter1_f_664_1081)">
<path fill-rule="evenodd" clip-rule="evenodd" d="M387.4 620.363C383.946 626.347 383.946 633.72 387.4 639.704L493.56 823.613C497.014 829.597 503.398 833.282 510.305 833.282H722.626C729.533 833.282 735.916 829.597 739.371 823.613L845.531 639.704C848.985 633.72 848.985 626.347 845.531 620.363L739.371 436.454C735.916 430.47 729.533 426.784 722.626 426.784H510.305C503.398 426.784 497.014 430.47 493.56 436.454L387.4 620.363ZM383.11 617.886C378.771 625.403 378.771 634.664 383.11 642.181L489.27 826.089C493.609 833.606 501.627 838.236 510.305 838.236H722.626C731.303 838.236 739.322 833.606 743.661 826.089L849.821 642.181C854.16 634.664 854.16 625.403 849.821 617.886L743.661 433.978C739.322 426.461 731.303 421.831 722.626 421.831H510.305C501.627 421.831 493.609 426.461 489.27 433.978L383.11 617.886Z" fill="#5814C7"/>
</g>
<g filter="url(#filter2_f_664_1081)">
<path fill-rule="evenodd" clip-rule="evenodd" d="M388.72 621.125C385.538 626.637 385.538 633.429 388.72 638.942L494.88 822.851C498.062 828.363 503.942 831.758 510.305 831.758H722.626C728.988 831.758 734.869 828.363 738.051 822.851L844.211 638.942C847.393 633.429 847.393 626.637 844.211 621.125L738.051 437.216C734.869 431.704 728.988 428.309 722.626 428.309H510.305C503.942 428.309 498.062 431.704 494.88 437.216L388.72 621.125ZM383.11 617.886C378.771 625.403 378.771 634.664 383.11 642.181L489.27 826.089C493.609 833.606 501.627 838.236 510.305 838.236H722.626C731.303 838.236 739.322 833.606 743.661 826.089L849.821 642.181C854.16 634.664 854.16 625.403 849.821 617.886L743.661 433.978C739.322 426.461 731.303 421.831 722.626 421.831H510.305C501.627 421.831 493.609 426.461 489.27 433.978L383.11 617.886Z" fill="#5814C7"/>
</g>
<g filter="url(#filter3_ddi_664_1081)">
<path fill-rule="evenodd" clip-rule="evenodd" d="M387.4 620.363C383.946 626.347 383.946 633.72 387.4 639.704L493.56 823.613C497.014 829.597 503.398 833.282 510.305 833.282H722.626C729.533 833.282 735.916 829.597 739.371 823.613L845.531 639.704C848.985 633.72 848.985 626.347 845.531 620.363L739.371 436.454C735.916 430.47 729.533 426.784 722.626 426.784H510.305C503.398 426.784 497.014 430.47 493.56 436.454L387.4 620.363ZM383.11 617.886C378.771 625.403 378.771 634.664 383.11 642.181L489.27 826.089C493.609 833.606 501.627 838.236 510.305 838.236H722.626C731.303 838.236 739.322 833.606 743.661 826.089L849.821 642.181C854.16 634.664 854.16 625.403 849.821 617.886L743.661 433.978C739.322 426.461 731.303 421.831 722.626 421.831H510.305C501.627 421.831 493.609 426.461 489.27 433.978L383.11 617.886Z" fill="#8F37FF" fill-opacity="0.2"/>
</g>
<g filter="url(#filter4_f_664_1081)">
<path fill-rule="evenodd" clip-rule="evenodd" d="M385.75 619.41C381.955 625.984 381.955 634.083 385.75 640.656L491.91 824.565C495.705 831.139 502.717 835.188 510.305 835.188H722.626C730.214 835.188 737.226 831.139 741.021 824.565L847.181 640.656C850.975 634.083 850.975 625.984 847.181 619.41L741.021 435.502C737.226 428.928 730.214 424.879 722.626 424.879H510.305C502.717 424.879 495.705 428.928 491.91 435.502L385.75 619.41ZM383.11 617.886C378.771 625.403 378.771 634.664 383.11 642.181L489.27 826.089C493.609 833.606 501.627 838.236 510.305 838.236H722.626C731.303 838.236 739.322 833.606 743.661 826.089L849.821 642.181C854.16 634.664 854.16 625.403 849.821 617.886L743.661 433.978C739.322 426.461 731.303 421.831 722.626 421.831H510.305C501.627 421.831 493.609 426.461 489.27 433.978L383.11 617.886Z" fill="#AB6AFD"/>
</g>
<g filter="url(#filter5_f_664_1081)">
<path fill-rule="evenodd" clip-rule="evenodd" d="M384.43 618.648C380.363 625.693 380.363 634.373 384.43 641.419L490.59 825.327C494.657 832.372 502.172 836.712 510.305 836.712H722.626C730.759 836.712 738.274 832.372 742.341 825.327L848.501 641.419C852.568 634.373 852.568 625.693 848.501 618.648L742.341 434.74C738.274 427.695 730.759 423.355 722.626 423.355H510.305C502.172 423.355 494.657 427.695 490.59 434.74L384.43 618.648ZM383.11 617.886C378.771 625.403 378.771 634.664 383.11 642.181L489.27 826.089C493.609 833.606 501.627 838.236 510.305 838.236H722.626C731.303 838.236 739.322 833.606 743.661 826.089L849.821 642.181C854.16 634.664 854.16 625.403 849.821 617.886L743.661 433.978C739.322 426.461 731.303 421.831 722.626 421.831H510.305C501.627 421.831 493.609 426.461 489.27 433.978L383.11 617.886Z" fill="white"/>
</g>
<path d="M764.304 901.749C760.46 903.342 756.394 904.441 752.201 904.993L752.005 903.506C750.008 903.768 747.981 903.903 745.935 903.903H738.322V905.403H723.095V903.903H707.869V905.403H692.642V903.903H677.415V905.403H662.189V903.903H646.962V905.403H631.735V903.903H616.509V905.403H601.282V903.903H586.056V905.403H570.829V903.903H555.602V905.403H540.376V903.903H525.149V905.403H509.922V903.903H494.696V905.403H479.469V903.903H464.243V905.403H449.016V903.903H441.403C439.356 903.903 437.33 903.768 435.333 903.506L435.137 904.993C430.943 904.441 426.878 903.342 423.034 901.749L423.608 900.364C419.854 898.808 416.319 896.767 413.095 894.294L412.182 895.484C408.881 892.951 405.896 889.98 403.321 886.624L404.511 885.711C403.286 884.113 402.156 882.425 401.133 880.653L397.326 874.059L396.027 874.809L388.414 861.623L389.713 860.873L382.099 847.686L380.8 848.436L373.187 835.25L374.486 834.5L366.873 821.313L365.574 822.063L357.96 808.876L359.259 808.126L351.646 794.94L350.347 795.69L342.734 782.503L344.033 781.753L336.419 768.566L335.12 769.316L327.507 756.13L328.806 755.38L321.193 742.193L319.894 742.943L312.28 729.756L313.579 729.006L305.966 715.82L304.667 716.57L297.054 703.383L298.353 702.633L290.74 689.446L289.441 690.196L281.827 677.01L283.126 676.26L275.513 663.073L274.214 663.823L266.601 650.637L267.9 649.887L260.286 636.7L258.987 637.45L251.374 624.263L252.673 623.513L248.866 616.92C247.843 615.148 246.946 613.325 246.175 611.465L244.79 612.039C243.17 608.131 242.089 604.061 241.547 599.935L243.034 599.74C242.504 595.711 242.504 591.629 243.034 587.6L241.547 587.405C242.089 583.279 243.17 579.209 244.79 575.301L246.175 575.875C246.946 574.015 247.843 572.192 248.866 570.42L252.673 563.827L251.374 563.077L258.987 549.89L260.286 550.64L267.9 537.453L266.601 536.703L274.214 523.517L275.513 524.267L283.126 511.08L281.827 510.33L289.441 497.143L290.74 497.893L298.353 484.707L297.054 483.957L304.667 470.77L305.966 471.52L313.579 458.334L312.28 457.584L319.894 444.397L321.193 445.147L328.806 431.96L327.507 431.21L335.12 418.024L336.419 418.774L344.033 405.587L342.734 404.837L350.347 391.65L351.646 392.4L359.259 379.214L357.96 378.464L365.574 365.277L366.873 366.027L374.486 352.84L373.187 352.09L380.8 338.904L382.099 339.654L389.713 326.467L388.414 325.717L396.027 312.531L397.326 313.281L401.133 306.687C402.156 304.915 403.286 303.227 404.511 301.629L403.321 300.716C405.896 297.36 408.881 294.389 412.182 291.856L413.095 293.046C416.319 290.573 419.854 288.532 423.608 286.976L423.034 285.591C426.878 283.998 430.943 282.899 435.137 282.347L435.333 283.834C437.33 283.572 439.356 283.437 441.403 283.437H449.016V281.937H464.243V283.437H479.469V281.937H494.696V283.437H509.922V281.937H525.149V283.437H540.376V281.937H555.602V283.437H570.829V281.937H586.056V283.437H601.282V281.937H616.509V283.437H631.735V281.937H646.962V283.437H662.189V281.937H677.415V283.437H692.642V281.937H707.868V283.437H723.095V281.937H738.322V283.437H745.935C747.981 283.437 750.008 283.572 752.005 283.834L752.201 282.347C756.394 282.899 760.46 283.998 764.304 285.591L763.73 286.976C767.484 288.532 771.019 290.573 774.243 293.046L775.156 291.856C778.457 294.389 781.442 297.36 784.016 300.716L782.826 301.629C784.052 303.227 785.182 304.915 786.205 306.687L790.012 313.281L791.311 312.531L798.924 325.717L797.625 326.467L805.238 339.654L806.537 338.904L814.151 352.09L812.852 352.84L820.465 366.027L821.764 365.277L829.377 378.464L828.078 379.214L835.692 392.4L836.991 391.65L844.604 404.837L843.305 405.587L850.918 418.774L852.217 418.024L859.831 431.21L858.532 431.96L866.145 445.147L867.444 444.397L875.057 457.584L873.758 458.334L881.372 471.52L882.671 470.77L890.284 483.957L888.985 484.707L896.598 497.893L897.897 497.143L905.511 510.33L904.211 511.08L911.825 524.267L913.124 523.517L920.737 536.703L919.438 537.453L927.051 550.64L928.35 549.89L935.964 563.077L934.665 563.827L938.471 570.42C939.495 572.192 940.392 574.015 941.162 575.875L942.548 575.301C944.167 579.209 945.248 583.279 945.791 587.405L944.304 587.6C944.834 591.629 944.834 595.711 944.304 599.74L945.791 599.935C945.248 604.061 944.167 608.131 942.548 612.039L941.163 611.465C940.392 613.325 939.495 615.148 938.471 616.92L934.665 623.513L935.964 624.263L928.351 637.45L927.051 636.7L919.438 649.887L920.737 650.637L913.124 663.823L911.825 663.073L904.211 676.26L905.511 677.01L897.897 690.196L896.598 689.446L888.985 702.633L890.284 703.383L882.671 716.57L881.372 715.82L873.758 729.006L875.057 729.756L867.444 742.943L866.145 742.193L858.532 755.38L859.831 756.13L852.217 769.316L850.918 768.566L843.305 781.753L844.604 782.503L836.991 795.69L835.692 794.94L828.078 808.126L829.377 808.876L821.764 822.063L820.465 821.313L812.852 834.499L814.151 835.25L806.537 848.436L805.238 847.686L797.625 860.873L798.924 861.623L791.311 874.809L790.012 874.059L786.205 880.653C785.182 882.425 784.052 884.113 782.826 885.711L784.016 886.624C781.442 889.98 778.457 892.951 775.156 895.484L774.243 894.294C771.019 896.767 767.484 898.808 763.73 900.364L764.304 901.749Z" stroke="#E2E4E9" stroke-width="3" stroke-dasharray="16 16"/>
<defs>
<filter id="filter0_f_664_1081" x="232.049" y="235.59" width="764.879" height="744.218" filterUnits="userSpaceOnUse" color-interpolation-filters="sRGB">
<feFlood flood-opacity="0" result="BackgroundImageFix"/>
<feBlend mode="normal" in="SourceGraphic" in2="BackgroundImageFix" result="shape"/>
<feGaussianBlur stdDeviation="50" result="effect1_foregroundBlur_664_1081"/>
</filter>
<filter id="filter1_f_664_1081" x="353.29" y="395.266" width="526.351" height="469.536" filterUnits="userSpaceOnUse" color-interpolation-filters="sRGB">
<feFlood flood-opacity="0" result="BackgroundImageFix"/>
<feBlend mode="normal" in="SourceGraphic" in2="BackgroundImageFix" result="shape"/>
<feGaussianBlur stdDeviation="13.2825" result="effect1_foregroundBlur_664_1081"/>
</filter>
<filter id="filter2_f_664_1081" x="371" y="412.976" width="490.931" height="434.116" filterUnits="userSpaceOnUse" color-interpolation-filters="sRGB">
<feFlood flood-opacity="0" result="BackgroundImageFix"/>
<feBlend mode="normal" in="SourceGraphic" in2="BackgroundImageFix" result="shape"/>
<feGaussianBlur stdDeviation="4.4275" result="effect1_foregroundBlur_664_1081"/>
</filter>
<filter id="filter3_ddi_664_1081" x="368.344" y="419.174" width="496.244" height="439.429" filterUnits="userSpaceOnUse" color-interpolation-filters="sRGB">
<feFlood flood-opacity="0" result="BackgroundImageFix"/>
<feColorMatrix in="SourceAlpha" type="matrix" values="0 0 0 0 0 0 0 0 0 0 0 0 0 0 0 0 0 0 127 0" result="hardAlpha"/>
<feOffset dy="7.15"/>
<feGaussianBlur stdDeviation="2.75"/>
<feColorMatrix type="matrix" values="0 0 0 0 0.055 0 0 0 0 0 0 0 0 0 0.082 0 0 0 0.7 0"/>
<feBlend mode="multiply" in2="BackgroundImageFix" result="effect1_dropShadow_664_1081"/>
<feColorMatrix in="SourceAlpha" type="matrix" values="0 0 0 0 0 0 0 0 0 0 0 0 0 0 0 0 0 0 127 0" result="hardAlpha"/>
<feOffset dy="8.855"/>
<feGaussianBlur stdDeviation="5.75575"/>
<feColorMatrix type="matrix" values="0 0 0 0 0.6 0 0 0 0 0.415686 0 0 0 0 0.992157 0 0 0 1 0"/>
<feBlend mode="color-dodge" in2="effect1_dropShadow_664_1081" result="effect2_dropShadow_664_1081"/>
<feBlend mode="normal" in="SourceGraphic" in2="effect2_dropShadow_664_1081" result="shape"/>
<feColorMatrix in="SourceAlpha" type="matrix" values="0 0 0 0 0 0 0 0 0 0 0 0 0 0 0 0 0 0 127 0" result="hardAlpha"/>
<feOffset dx="-0.715" dy="1.43"/>
<feGaussianBlur stdDeviation="0.3575"/>
<feComposite in2="hardAlpha" operator="arithmetic" k2="-1" k3="1"/>
<feColorMatrix type="matrix" values="0 0 0 0 1 0 0 0 0 1 0 0 0 0 1 0 0 0 0.5 0"/>
<feBlend mode="normal" in2="shape" result="effect3_innerShadow_664_1081"/>
</filter>
<filter id="filter4_f_664_1081" x="378.755" y="420.731" width="475.421" height="418.606" filterUnits="userSpaceOnUse" color-interpolation-filters="sRGB">
<feFlood flood-opacity="0" result="BackgroundImageFix"/>
<feBlend mode="normal" in="SourceGraphic" in2="BackgroundImageFix" result="shape"/>
<feGaussianBlur stdDeviation="0.55" result="effect1_foregroundBlur_664_1081"/>
</filter>
<filter id="filter5_f_664_1081" x="379.122" y="421.097" width="474.687" height="417.872" filterUnits="userSpaceOnUse" color-interpolation-filters="sRGB">
<feFlood flood-opacity="0" result="BackgroundImageFix"/>
<feBlend mode="normal" in="SourceGraphic" in2="BackgroundImageFix" result="shape"/>
<feGaussianBlur stdDeviation="0.366667" result="effect1_foregroundBlur_664_1081"/>
</filter>
<radialGradient id="paint0_radial_664_1081" cx="0" cy="0" r="1" gradientUnits="userSpaceOnUse" gradientTransform="translate(614.488 607.699) scale(282.44 272.109)">
<stop stop-color="#3300FF" stop-opacity="0.79"/>
<stop offset="1" stop-color="#5200FF" stop-opacity="0.4"/>
</radialGradient>
</defs>
</svg>
