<svg width="53" height="52" viewBox="0 0 53 52" fill="none" xmlns="http://www.w3.org/2000/svg">
<path d="M33.2222 11.9232C35.2529 9.89251 38.5454 9.89251 40.5761 11.9232C42.6069 13.954 42.6069 17.2464 40.5761 19.2772L32.7761 27.0771C30.7454 29.1079 27.4529 29.1079 25.4222 27.0772C24.4069 26.0618 22.7606 26.0618 21.7453 27.0772C20.7299 28.0925 20.7299 29.7387 21.7453 30.7541C25.8067 34.8156 32.3916 34.8156 36.4531 30.7541L44.2531 22.9541C48.3145 18.8927 48.3145 12.3077 44.2531 8.24628C40.1916 4.18483 33.6067 4.18483 29.5453 8.24628L25.6453 12.1463C24.6299 13.1616 24.6299 14.8079 25.6453 15.8232C26.6606 16.8386 28.3069 16.8386 29.3222 15.8232L33.2222 11.9232Z" fill="#964DDF"/>
<path d="M20.2223 24.9232C22.253 22.8925 25.5454 22.8925 27.5762 24.9232C28.5915 25.9386 30.2378 25.9386 31.2531 24.9232C32.2685 23.9079 32.2685 22.2616 31.2531 21.2463C27.1917 17.1848 20.6068 17.1848 16.5453 21.2463L8.74531 29.0463C4.68386 33.1077 4.68386 39.6927 8.74531 43.7541C12.8068 47.8156 19.3917 47.8156 23.4531 43.7541L27.3531 39.8541C28.3685 38.8387 28.3685 37.1925 27.3531 36.1772C26.3378 35.1618 24.6915 35.1618 23.6762 36.1772L19.7762 40.0772C17.7454 42.1079 14.453 42.1079 12.4223 40.0772C10.3915 38.0464 10.3915 34.754 12.4223 32.7232L20.2223 24.9232Z" fill="#964DDF"/>
</svg>
