<svg width="20" height="20" viewBox="0 0 20 20" fill="none" xmlns="http://www.w3.org/2000/svg">
<path d="M2.75 0.375C1.57639 0.375 0.625 1.32639 0.625 2.5C0.625 3.6736 1.57639 4.625 2.75 4.625C3.9236 4.625 4.875 3.6736 4.875 2.5C4.875 1.32639 3.9236 0.375 2.75 0.375Z" fill="white"/>
<path d="M0.75 6.375C0.680964 6.375 0.625 6.43096 0.625 6.5V19.5C0.625 19.569 0.680964 19.625 0.75 19.625H4.75C4.81904 19.625 4.875 19.569 4.875 19.5V6.5C4.875 6.43096 4.81904 6.375 4.75 6.375H0.75Z" fill="white"/>
<path d="M7.25 6.375C7.18096 6.375 7.125 6.43096 7.125 6.5V19.5C7.125 19.569 7.18096 19.625 7.25 19.625H11.25C11.319 19.625 11.375 19.569 11.375 19.5V12.5C11.375 12.0027 11.5725 11.5258 11.9242 11.1742C12.2758 10.8225 12.7527 10.625 13.25 10.625C13.7473 10.625 14.2242 10.8225 14.5758 11.1742C14.9275 11.5258 15.125 12.0027 15.125 12.5V19.5C15.125 19.569 15.181 19.625 15.25 19.625H19.25C19.319 19.625 19.375 19.569 19.375 19.5V10.8802C19.375 8.4535 17.2644 6.55499 14.8498 6.7745C14.1052 6.84219 13.369 7.02731 12.6815 7.32194L11.375 7.88186V6.5C11.375 6.43096 11.319 6.375 11.25 6.375H7.25Z" fill="white"/>
</svg>
