<svg width="86" height="60" viewBox="0 0 86 60" fill="none" xmlns="http://www.w3.org/2000/svg">
<path fill-rule="evenodd" clip-rule="evenodd" d="M86 25.3434V25.3764C86 33.9727 86 43.1736 86 47.2676C86 49.1611 85.3172 49.9892 85.3172 49.9892C85.3172 49.9892 84.9588 50.9087 83.3733 51.8496C81.9566 52.7024 80.2031 52.7135 78.7761 51.8788C75.0912 49.8531 70.2019 46.7525 70.2019 46.7525C70.2019 46.7525 67.8009 45.7202 67.8085 42.0344C67.8085 40.0904 67.8085 38.0998 67.8085 36.1131L62.5987 39.1982C60.9905 40.1507 59.8886 39.9757 59.8886 39.9757C59.8886 39.9757 58.8796 40.0846 57.1216 39.0426L52.0692 36.0567V42.328C52.0692 44.2234 51.4168 44.9562 51.4168 44.9562C51.4168 44.9562 51.1665 45.9282 49.6966 46.8069L28.7495 59.2037C27.0805 60.1913 25.9957 59.9813 25.9957 59.9813C25.9957 59.9813 24.9545 60.164 23.2325 59.1454L2.5148 46.8983C0.96154 45.9788 0.68844 45.0826 0.68844 45.0826C0.68844 45.0826 0 44.1903 0 42.2405V17.7929C0 15.9714 0.568959 15.153 0.568959 15.153C0.568959 15.153 0.893265 14.0819 2.35549 13.209L23.1377 0.924968C24.9128 -0.124784 25.9938 0.0112949 25.9938 0.0112949C26.3822 -0.0221162 26.7732 0.0187536 27.1469 0.131822V0.0773904L27.3821 0.203749C27.8599 0.357492 28.3193 0.566179 28.7514 0.825825L40.5592 7.81057L58.1229 18.032C59.4903 18.5258 61.201 18.4597 62.3389 17.859L68.0095 14.5154C68.1253 14.4076 68.2625 14.3267 68.4116 14.2782L71.8007 12.2856L71.8291 12.3109L71.886 12.2778L72.2578 12.0523L72.7641 11.751L73.1776 11.5041L73.4658 11.3311L75.7777 9.95284L75.8763 9.89452L76.6615 9.42602L76.7772 9.35798L77.5225 8.91475L77.5946 8.87198L78.4177 8.3821C81.5944 6.50421 84.1661 8.5279 84.1661 8.5279C84.1661 8.5279 86.0019 9.83037 85.981 12.8047C85.981 22.4274 85.9924 19.0721 85.9943 25.3434H86ZM33.8891 26.2439C33.9069 25.9926 33.868 25.7405 33.7753 25.5071C33.5807 25.2569 33.338 25.0505 33.0622 24.9006L26.8037 21.1953C26.3296 20.9154 26.0451 20.9757 26.0451 20.9757C26.0451 20.9757 25.717 20.9349 25.1954 21.2439L18.9748 24.9375C18.4931 25.2233 18.4438 25.373 18.4438 25.373C18.2793 25.6427 18.1931 25.9549 18.1954 26.273V33.6874C18.1954 34.3095 18.33 34.5291 18.33 34.5291C18.4387 34.7691 18.6213 34.9658 18.8497 35.089L25.1499 38.8215C25.698 39.1461 26.0034 39.1053 26.0034 39.1053C26.298 39.128 26.5917 39.0494 26.8378 38.8817L33.1817 35.124C33.4329 34.9843 33.6431 34.7782 33.7905 34.5272C33.7905 34.5272 33.8967 34.3328 33.8967 33.7652L33.8891 26.2439Z" fill="#964DDF"/>
</svg>
