<svg width="60" height="61" viewBox="0 0 60 61" fill="none" xmlns="http://www.w3.org/2000/svg">
<path fill-rule="evenodd" clip-rule="evenodd" d="M29.3838 0.168427C24.989 0.900131 22.6356 6.25318 24.9252 10.3104C27.7588 15.3317 34.8415 14.3969 36.474 8.78601C37.8297 4.12655 33.9479 -0.591538 29.3838 0.168427ZM15.6607 3.34489C13.78 3.74745 12.0767 5.38147 11.4024 7.43012C10.3767 10.5463 12.1922 14.153 15.2673 15.108C16.303 15.4296 16.7061 15.3685 17.2097 14.8139C18.1599 13.7673 19.6223 12.8437 21.0088 12.414L21.8358 12.1578L22.087 11.4973C23.7431 7.14284 20.0147 2.41302 15.6607 3.34489ZM43.0626 3.29717C39.5298 3.92603 37.348 8.00482 38.6763 11.4973L38.9275 12.1578L39.7545 12.414C41.1411 12.8437 42.6034 13.7673 43.5536 14.8139C44.0572 15.3685 44.4604 15.4296 45.496 15.108C48.5711 14.153 50.3867 10.5463 49.3609 7.43012C48.4277 4.59512 45.727 2.82285 43.0626 3.29717ZM22.7628 15.6505C20.5114 16.0136 18.6699 17.7982 18.0858 20.1829C17.9532 20.7237 17.9213 21.7627 17.9213 25.5202V30.186H30.3817H42.8421V25.5202C42.8421 20.469 42.8116 20.1429 42.223 18.8977C41.5735 17.5235 40.2999 16.3655 38.8724 15.8511C38.1643 15.5959 38.0658 15.5925 30.7676 15.5719C26.7042 15.5604 23.102 15.5958 22.7628 15.6505ZM10.3127 17.1319C8.24373 17.354 6.58307 18.7588 5.90249 20.8622C5.69684 21.4977 5.68141 21.8475 5.68141 25.8658V30.186H10.0922H14.5029L14.5038 25.9353C14.505 20.5452 14.6191 19.4181 15.3398 17.6855L15.6029 17.0529L13.1507 17.0716C11.8021 17.0819 10.525 17.109 10.3127 17.1319ZM45.4178 17.6716C46.1448 19.4196 46.2583 20.5344 46.2595 25.9353L46.2604 30.186H50.6712H55.0819V25.8658C55.0819 21.8475 55.0665 21.4977 54.8608 20.8622C54.2978 19.1218 53.1318 17.9098 51.4562 17.3231C51.0743 17.1895 50.2212 17.1298 48.048 17.085L45.149 17.0252L45.4178 17.6716ZM5.70622 35.6679L5.73654 37.5148L9.04461 37.8894C10.864 38.0955 12.4411 38.267 12.5491 38.2705C12.6571 38.2741 12.7638 38.343 12.7861 38.4236C13.2112 39.9603 13.6488 41.1834 14.1917 42.3526L14.8591 43.79L12.6266 46.7336L10.3941 49.6772L12.8611 52.3026C14.218 53.7466 15.3615 54.928 15.4023 54.928C15.4431 54.928 16.6635 53.9073 18.1146 52.66C19.5655 51.4126 20.8017 50.3598 20.8617 50.3204C20.9216 50.281 21.545 50.5597 22.247 50.9397C22.949 51.3196 24.095 51.8221 24.7938 52.0561L26.0643 52.4816L26.1265 52.9133C26.1607 53.1506 26.3127 54.6377 26.4642 56.2178C26.6159 57.7979 26.7684 59.315 26.8032 59.5891L26.8666 60.0874H30.3817H33.8967L33.9601 59.5891C33.995 59.315 34.1475 57.7979 34.2991 56.2178C34.4506 54.6377 34.6026 53.1506 34.6368 52.9133L34.699 52.4816L35.9695 52.0561C36.6683 51.8221 37.8143 51.3196 38.5163 50.9397C39.2183 50.5597 39.8418 50.281 39.9016 50.3204C39.9616 50.3598 41.1978 51.4126 42.6488 52.66C44.0998 53.9073 45.3202 54.928 45.361 54.928C45.4018 54.928 46.5453 53.7466 47.9022 52.3026L50.3692 49.6772L48.1367 46.7336L45.9042 43.79L46.5716 42.3526C47.1145 41.1834 47.5521 39.9603 47.9772 38.4236C47.9996 38.343 48.1062 38.2741 48.2143 38.2705C48.3222 38.267 49.8993 38.0955 51.7187 37.8894L55.0268 37.5148L55.0571 35.6679L55.0875 33.8211H46.94H38.7925L38.7214 34.5592C38.2803 39.1376 34.6799 42.6156 30.3817 42.6156C26.0834 42.6156 22.483 39.1376 22.0419 34.5592L21.9708 33.8211H13.8233H5.67578L5.70622 35.6679Z" fill="#964DDF"/>
</svg>
