<svg width="60" height="60" viewBox="0 0 60 60" fill="none" xmlns="http://www.w3.org/2000/svg">
<path fill-rule="evenodd" clip-rule="evenodd" d="M28.2422 5.10865V8.45265H30H31.7578V5.10865V1.76465H30H28.2422V5.10865ZM19.5104 4.54765C18.7377 4.94712 18.0558 5.29092 17.9951 5.3119C17.9122 5.34035 20.7157 10.7235 20.9201 10.9282C20.9412 10.9494 21.6432 10.6165 22.4803 10.1884L24.0023 9.41005L22.5139 6.66911C21.6954 5.16147 21.0008 3.90413 20.9705 3.87477C20.9402 3.84541 20.2832 4.1483 19.5104 4.54765ZM37.5352 6.61368L36.0175 9.41617L37.4912 10.1786C38.3017 10.5979 38.9992 10.9422 39.0413 10.9438C39.1173 10.9465 42.0723 5.54019 42.0681 5.40598C42.0668 5.3671 41.3879 4.99235 40.5593 4.57327L39.0529 3.81106L37.5352 6.61368ZM0 25.5669V34.0662L2.24262 34.0969L4.48535 34.1278L4.86059 35.2047C5.29512 36.4518 5.89875 37.6506 6.65848 38.7754C7.40402 39.8791 24.9529 56.9159 25.8271 57.3848C26.6651 57.8341 28.2353 57.854 29.1012 57.4262C30.7811 56.5961 31.5152 54.4699 30.6676 52.8898L30.3422 52.283L31.6494 53.5047C33.24 54.9912 33.8612 55.3169 35.0977 55.3127C37.7651 55.3039 39.4391 52.6604 38.2227 50.3781L37.8386 49.6575L39.23 50.9867C40.9184 52.5995 41.351 52.8281 42.7148 52.8281C43.4201 52.8281 43.7856 52.7689 44.1901 52.5891C45.9434 51.8104 46.7177 49.6931 45.861 48.0212L45.5156 47.3471L46.8168 48.5665C48.3821 50.0333 48.9093 50.317 50.1779 50.3759C52.212 50.4703 53.7891 49.0436 53.7891 47.1091C53.7891 45.516 54.2871 46.0889 45.4874 37.5589L37.5669 29.8811L33.4027 33.8863C29.373 37.762 29.2061 37.9068 28.2422 38.3639C25.277 39.7697 22.2547 39.3025 19.9741 37.0857C17.4776 34.6587 17.1332 31.1609 19.1113 28.3219C19.3191 28.0238 21.2606 26.0548 23.4261 23.9465L27.3633 20.1131L27.0198 19.845C25.8768 18.9529 23.6903 17.946 21.9763 17.5221C20.2938 17.1061 19.2587 17.0684 9.52148 17.068L0 17.0677V25.5669ZM40.2539 17.1432C37.6682 17.4489 35.6333 18.147 33.6424 19.4111C32.316 20.2533 22.3143 29.8256 21.8188 30.7271C21.367 31.5489 21.3663 32.9635 21.8174 33.7877C22.494 35.0242 23.4851 35.5953 24.9609 35.5989C26.5978 35.603 26.4272 35.7318 32.3749 30.0031L37.6211 24.9502L45.1487 32.2312C49.2889 36.2357 52.7088 39.5122 52.7484 39.5122C53.0677 39.5122 54.6321 36.7009 55.1457 35.2047L55.5152 34.1278L57.7576 34.0969L60 34.0662V25.5669V17.0677L50.3027 17.0847C44.9692 17.094 40.4473 17.1204 40.2539 17.1432Z" fill="white"/>
</svg>
