<svg width="52" height="52" viewBox="0 0 52 52" fill="none" xmlns="http://www.w3.org/2000/svg">
<path fill-rule="evenodd" clip-rule="evenodd" d="M24.9154 6.40348C18.6053 7.36317 16.0995 14.9315 20.6763 19.2066C23.7217 22.0513 28.2779 22.0513 31.3234 19.2066C35.2394 15.5488 34.047 9.08619 29.0647 6.96369C27.8708 6.45511 26.1254 6.21943 24.9154 6.40348ZM11.4314 13.444C8.7808 13.9522 6.89793 16.0546 6.76199 18.6579C6.50208 23.6347 12.4809 26.4272 16.2924 23.1092C18.298 21.3633 18.7653 18.2977 17.3661 16.0655C16.1256 14.0866 13.6905 13.011 11.4314 13.444ZM38.3538 13.4721C36.3224 13.9257 34.7876 15.2744 34.1002 17.21C33.751 18.1934 33.7482 19.6847 34.0936 20.6962C35.4503 24.6688 40.5509 25.8497 43.5741 22.8911C47.1121 19.4288 44.7588 13.5804 39.75 13.3874C39.1987 13.3662 38.6898 13.3971 38.3538 13.4721ZM20.8814 23.0563C18.9342 23.4454 17.2815 24.659 16.4328 26.3228C15.68 27.7986 15.7197 27.3012 15.7197 35.2669V42.3034L15.9131 42.5685C16.3318 43.1421 15.7112 43.1088 25.9998 43.1088C36.2884 43.1088 35.6678 43.1421 36.0865 42.5685L36.2799 42.3034V35.2669C36.2799 27.3028 36.3196 27.8005 35.568 26.3228C34.8022 24.8173 33.2807 23.6188 31.5086 23.1254C30.8061 22.9298 21.8073 22.8713 20.8814 23.0563ZM8.95214 26.3242C6.67532 26.7666 4.74153 28.5366 4.04213 30.8183C3.85605 31.4254 3.84651 31.6132 3.81285 35.3145C3.79177 37.6329 3.81241 39.4221 3.86455 39.7898C4.07111 41.2462 5.01419 42.3861 6.43719 42.8996C6.82272 43.0387 7.22698 43.0597 10.07 43.089L13.269 43.1218L13.1931 42.7974C13.1513 42.619 13.1171 39.1921 13.1171 35.1821C13.1171 27.3741 13.1125 27.4677 13.5524 26.3864C13.609 26.2474 13.4774 26.2386 11.4564 26.2474C10.2704 26.2524 9.14342 26.287 8.95214 26.3242ZM38.4443 26.3792C38.8877 27.4705 38.8825 27.3668 38.8825 35.1821C38.8825 39.1921 38.8483 42.619 38.8065 42.7974L38.7306 43.1218L41.9296 43.089C44.7726 43.0597 45.1769 43.0387 45.5624 42.8996C46.9854 42.3861 47.9285 41.2462 48.1351 39.7898C48.1872 39.4221 48.2078 37.6329 48.1868 35.3145C48.1531 31.6132 48.1436 31.4254 47.9575 30.8183C47.3319 28.7775 45.8252 27.2314 43.7571 26.5083C43.1563 26.2983 43.046 26.2891 40.7572 26.2569C38.48 26.2251 38.3838 26.2301 38.4443 26.3792Z" fill="#964DDF"/>
</svg>
