<svg width="52" height="52" viewBox="0 0 52 52" fill="none" xmlns="http://www.w3.org/2000/svg">
<path fill-rule="evenodd" clip-rule="evenodd" d="M23.3059 6.38444C22.6226 6.50137 22.1231 6.83942 17.1426 10.5549L12.1541 14.2764H14.3392H16.5243L20.0806 11.626C22.0364 10.1683 23.6907 8.95456 23.7565 8.92885C24.0305 8.822 24.3349 9.17232 26.128 11.6579L27.9888 14.2373L29.5771 14.2584C30.4506 14.27 31.1654 14.2617 31.1654 14.2399C31.1654 14.117 26.2794 7.45683 25.991 7.18662C25.2887 6.5285 24.2598 6.22116 23.3059 6.38444ZM32.2918 6.38358C31.7586 6.47777 31.2529 6.75673 30.2237 7.52451L29.3204 8.19835L29.6069 8.5994C30.0867 9.27073 30.7953 10.2492 30.8249 10.281C30.8403 10.2975 31.2392 10.0223 31.7115 9.66935C32.7027 8.92854 32.8404 8.86053 33.0915 8.98778C33.1909 9.0382 34.1159 10.2488 35.147 11.6779L37.0216 14.2764H38.5914C39.4549 14.2764 40.1613 14.2561 40.1613 14.2314C40.1613 14.1383 35.3656 7.54319 35.0815 7.24571C34.4461 6.58008 33.2581 6.21296 32.2918 6.38358ZM7.96086 17.1597C7.12954 17.4524 6.55626 18.1419 6.4121 19.0224C6.34959 19.404 6.33144 22.9415 6.34713 31.6674L6.36889 43.7825L6.56803 44.2124C6.85659 44.8352 7.11993 45.1124 7.69836 45.4018L8.21098 45.6584H24.7436H41.2762L41.6683 45.478C42.1279 45.2665 42.6126 44.7855 42.8652 44.2905C43.0439 43.9403 43.0447 43.9251 43.0663 40.5974L43.0879 37.256L37.8379 37.2554C32.927 37.2549 32.5481 37.2452 31.9727 37.1048C29.9977 36.623 28.4475 35.1919 27.7562 33.212C27.4312 32.2814 27.4013 30.6271 27.6922 29.6743C28.3022 27.6764 29.8505 26.1539 31.8469 25.5891C32.4145 25.4285 32.6117 25.422 37.7586 25.394L43.0831 25.3649V22.1684C43.0831 19.1318 43.0752 18.9505 42.9246 18.5414C42.7328 18.0201 42.2622 17.5059 41.7363 17.2429L41.3531 17.0511L24.8605 17.0338C9.04122 17.0171 8.35138 17.0223 7.96086 17.1597ZM32.0705 27.669C28.897 28.7684 28.571 33.2683 31.555 34.7858C32.4318 35.2318 32.3744 35.2285 38.8927 35.2057L44.89 35.1847L45.141 35.0026C45.6628 34.6243 45.6589 34.6522 45.6589 31.3547C45.6589 28.0295 45.6632 28.0573 45.0859 27.6618L44.8288 27.4857L38.7083 27.4878L32.5878 27.4898L32.0705 27.669Z" fill="#964DDF"/>
</svg>
