<svg width="52" height="52" viewBox="0 0 52 52" fill="none" xmlns="http://www.w3.org/2000/svg">
<path fill-rule="evenodd" clip-rule="evenodd" d="M24.3146 4.0704C9.96044 5.25682 0.516818 19.6402 5.21822 33.156C6.87102 37.9075 10.4431 42.3099 14.7077 44.8514L15.5949 45.3801L15.1613 45.5808C13.9499 46.1416 14.1496 47.6952 15.4696 47.9791C15.7484 48.039 19.1658 46.8475 19.6794 46.5114C19.9775 46.3162 20.1769 45.9052 20.1749 45.4898C20.173 45.0744 18.6303 41.6716 18.2731 41.2948C17.4155 40.3901 15.8376 41.3005 16.1822 42.5011C16.2836 42.8541 16.2927 42.8559 15.5604 42.3826C9.42241 38.4154 5.88917 31.1895 6.62358 24.1057C7.62213 14.4745 15.4077 7.10639 25.1472 6.57529C26.5418 6.49925 26.6835 6.4521 27.0693 5.93588C27.3052 5.62001 27.3052 4.92839 27.0693 4.61251C26.6232 4.0156 26.1367 3.91986 24.3146 4.0704ZM35.4739 4.10911C34.3352 4.53655 32.3012 5.48659 32.1406 5.66603C31.8898 5.94621 31.7544 6.462 31.847 6.78432C32.0032 7.32782 33.5216 10.4917 33.7341 10.7165C34.59 11.6219 36.1689 10.7106 35.8244 9.51021C35.7145 9.12758 35.7753 9.14668 36.7339 9.79598C41.3034 12.8915 44.2396 17.4535 45.2564 23.0379C45.5046 24.4008 45.4817 27.7331 45.214 29.2315C43.5819 38.363 36.1524 44.9293 26.8807 45.4349C25.7775 45.495 25.5258 45.5342 25.3363 45.6756C24.5416 46.2684 24.5471 47.2117 25.3487 47.807C26.02 48.3057 30.1997 47.7842 32.9633 46.857C45.7357 42.5715 51.6943 28.0272 45.5907 16.0342C43.6722 12.2647 40.1772 8.61325 36.8 6.85013C36.2538 6.56497 36.2476 6.54699 36.6207 6.32703C37.4403 5.84384 37.3559 4.54842 36.4789 4.15057C36.0614 3.96115 35.8871 3.95401 35.4739 4.10911ZM23.0419 9.31838C22.3506 9.53111 22.1301 10.0401 22.1294 11.4248L22.1288 12.3711L21.4186 12.6141C21.0279 12.7478 20.3443 13.0286 19.8994 13.2383L19.0904 13.6193L18.2949 12.8504C17.442 12.026 17.1927 11.9077 16.5542 12.0233C16.0704 12.1109 12.0966 16.0813 12.0089 16.5647C11.8931 17.2027 12.0116 17.4517 12.8367 18.3039L13.6063 19.0987L13.2249 19.907C13.0151 20.3516 12.7351 21.0311 12.6027 21.4171L12.362 22.119L11.1818 22.1483C9.90008 22.1801 9.75208 22.2304 9.34889 22.7699C9.0726 23.1396 9.0726 28.8717 9.34889 29.2414C9.75208 29.7809 9.90008 29.8312 11.1818 29.863L12.362 29.8923L12.6027 30.5942C12.7351 30.9802 13.0151 31.6597 13.2249 32.1043L13.6063 32.9126L12.8367 33.7074C12.0116 34.5596 11.8931 34.8086 12.0089 35.4466C12.0966 35.93 16.0704 39.9004 16.5542 39.988C17.1927 40.1036 17.442 39.9853 18.2949 39.1609L19.0904 38.392L19.8994 38.773C20.3443 38.9827 21.0244 39.2624 21.4106 39.3946L22.1129 39.635L22.1424 40.7713C22.1745 42.0041 22.2286 42.1597 22.7648 42.5597C23.1348 42.8357 28.8718 42.8357 29.2418 42.5597C29.7783 42.1595 29.8321 42.0046 29.8642 40.7667L29.8938 39.6259L30.5099 39.4294C30.8488 39.3213 31.529 39.0438 32.0215 38.8128L32.9169 38.3926L33.7121 39.1613C34.5646 39.9853 34.8138 40.1036 35.4524 39.988C35.9362 39.9004 39.91 35.93 39.9977 35.4466C40.1134 34.8086 39.995 34.5596 39.1699 33.7074L38.4003 32.9126L38.7817 32.1043C38.9915 31.6597 39.2715 30.9802 39.4038 30.5942L39.6446 29.8923L40.8248 29.863C42.1065 29.8312 42.2545 29.7809 42.6577 29.2414C42.934 28.8717 42.934 23.1396 42.6577 22.7699C42.2545 22.2304 42.1065 22.1801 40.8248 22.1483L39.6446 22.119L39.4038 21.4171C39.2715 21.0311 38.9915 20.3516 38.7817 19.907L38.4003 19.0987L39.1699 18.3039C39.995 17.4517 40.1134 17.2027 39.9977 16.5647C39.91 16.0813 35.9362 12.1109 35.4524 12.0233C34.8138 11.9077 34.5646 12.026 33.7121 12.85L32.9169 13.6186L32.0215 13.1985C31.529 12.9675 30.8488 12.69 30.5099 12.5819L29.8938 12.3854L29.8642 11.2446C29.8321 10.0068 29.7784 9.85198 29.242 9.45163C29.0143 9.28165 28.8852 9.27356 26.1478 9.25799C24.5767 9.24904 23.1791 9.27623 23.0419 9.31838ZM27.6176 17.1033C34.7535 18.4558 37.5063 27.0426 32.4869 32.2917C27.4377 37.5721 18.4659 34.8484 17.0933 27.6186C15.9335 21.5097 21.5034 15.9445 27.6176 17.1033Z" fill="#964DDF"/>
</svg>
