<svg width="60" height="60" viewBox="0 0 60 60" fill="none" xmlns="http://www.w3.org/2000/svg">
<path fill-rule="evenodd" clip-rule="evenodd" d="M43.4188 0.949438C39.8234 1.38517 36.5678 4.0325 35.4324 7.44358C35.026 8.66404 34.8815 9.71411 34.9252 11.1271L34.9634 12.36L28.9321 15.1447C25.6148 16.6762 22.845 17.929 22.7768 17.9285C22.7085 17.9279 22.4093 17.6222 22.1118 17.2492C20.9086 15.7404 18.704 14.2711 16.6685 13.6214C13.9134 12.7421 10.6606 12.9123 8.07945 14.0707C0.308742 17.5583 -1.57489 27.6929 4.43142 33.6986C9.00833 38.2751 16.252 38.4599 21.0387 34.1223L21.8157 33.4182L22.1772 33.6329C22.8586 34.0376 30.9738 39.0392 31.0205 39.0833C31.0462 39.1076 30.9302 39.5766 30.7626 40.1255C29.3464 44.7647 30.1503 49.5968 32.9574 53.3191C38.927 61.2349 50.9255 61.0078 56.5498 52.8726C59.5282 48.5647 59.9502 42.8672 57.6374 38.186C53.2687 29.3434 41.7443 27.3309 34.4995 34.1455L33.5871 35.0039L28.9609 32.1571L24.3347 29.3104L24.552 28.612C25.1065 26.8311 25.2367 24.5146 24.8703 22.9547C24.8053 22.6784 24.7928 22.4123 24.8424 22.3637C24.8919 22.315 27.6701 21.0127 31.0162 19.4696L37.0999 16.6639L37.7177 17.2965C41.5676 21.2394 47.9346 21.1838 51.6672 17.1747C53.6689 15.0246 54.6264 11.903 54.1624 9.03925C53.6773 6.04578 51.6888 3.30989 49.0407 1.99301C47.1929 1.07401 45.2959 0.721827 43.4188 0.949438Z" fill="white"/>
</svg>
