<svg width="52" height="52" viewBox="0 0 52 52" fill="none" xmlns="http://www.w3.org/2000/svg">
<path fill-rule="evenodd" clip-rule="evenodd" d="M5.6311 12.9972C13.4526 12.8911 20.579 9.90693 25.9992 5.05566C31.4195 9.90693 38.5458 12.8911 46.3673 12.9972C46.6514 14.6892 46.7992 16.4274 46.7992 18.2002C46.7992 31.7848 38.1172 43.3416 25.9992 47.6247C13.8812 43.3416 5.19922 31.7848 5.19922 18.2002C5.19922 16.4274 5.34706 14.6892 5.6311 12.9972ZM35.6377 22.6385C36.6531 21.6232 36.6531 19.977 35.6377 18.9616C34.6223 17.9462 32.9761 17.9462 31.9607 18.9616L23.3992 27.5231L20.0377 24.1616C19.0223 23.1462 17.3761 23.1462 16.3607 24.1616C15.3454 25.177 15.3454 26.8232 16.3607 27.8385L21.5607 33.0385C22.5761 34.0539 24.2223 34.0539 25.2377 33.0385L35.6377 22.6385Z" fill="#964DDF"/>
</svg>
