<svg width="18" height="19" viewBox="0 0 18 19" fill="none" xmlns="http://www.w3.org/2000/svg">
<path fill-rule="evenodd" clip-rule="evenodd" d="M6.9767 1.24228C7.62516 1.08395 8.30278 1 9 1C13.6944 1 17.5 4.80558 17.5 9.5C17.5 10.1972 17.4161 10.8748 17.2577 11.5233C17.7269 12.2337 18 13.085 18 14C18 16.4853 15.9853 18.5 13.5 18.5C12.585 18.5 11.7337 18.2269 11.0233 17.7577C10.3748 17.9161 9.69723 18 9 18C4.30558 18 0.5 14.1944 0.5 9.5C0.5 8.80278 0.583946 8.12516 0.742284 7.4767C0.273118 6.76631 0 5.91505 0 5C0 2.51472 2.01472 0.5 4.5 0.5C5.41505 0.5 6.26631 0.773118 6.9767 1.24228ZM10.5042 8.77251C10.8776 8.88386 11.2335 9.04721 11.5614 9.25774C11.8964 9.47795 12.1756 9.77372 12.3772 10.1202C12.5859 10.504 12.6917 10.9353 12.6841 11.3722C12.7016 11.9356 12.5338 12.4893 12.2062 12.9481C11.8616 13.4191 11.3886 13.7808 10.8438 13.9898C10.2577 14.2237 9.63026 14.3365 8.99939 14.3212C8.25699 14.3421 7.52056 14.1829 6.85307 13.8572C6.41437 13.6263 6.03772 13.2932 5.75495 12.886C5.47201 12.4945 5.31348 12.0268 5.29999 11.544C5.29999 11.327 5.3862 11.1188 5.53965 10.9654C5.69311 10.8119 5.90124 10.7257 6.11826 10.7257C6.33528 10.7257 6.54341 10.8119 6.69687 10.9654C6.85032 11.1188 6.93653 11.327 6.93653 11.544C6.95334 11.6936 7.01047 11.8359 7.10182 11.9556C7.23197 12.1426 7.40474 12.2961 7.60588 12.4032C8.04135 12.6066 8.5191 12.7031 8.99939 12.6847C9.41471 12.6982 9.8285 12.6281 10.2162 12.4785C10.4762 12.385 10.704 12.2189 10.8724 11.9998C10.9971 11.8258 11.0589 11.6145 11.0475 11.4008C11.0561 11.2357 11.0229 11.071 10.951 10.9221C10.8766 10.8001 10.7749 10.697 10.6539 10.621C10.4599 10.4987 10.2498 10.4039 10.0296 10.3395C9.8504 10.2847 9.65483 10.2315 9.4519 10.1791L9.43717 10.1775C9.42809 10.1745 9.41543 10.1714 9.40416 10.1687C9.40019 10.1678 9.39639 10.1669 9.39298 10.166C9.26042 10.1325 9.12786 10.0989 8.9863 10.0678C8.62463 9.9901 8.37424 9.92709 8.21713 9.87963C8.21357 9.87874 8.2105 9.87665 8.20739 9.87453C8.20477 9.87274 8.20212 9.87093 8.19913 9.86981C7.8358 9.78173 7.47856 9.67021 7.12964 9.53596C6.66788 9.35073 6.26234 9.04841 5.95297 8.65877C5.63251 8.23824 5.4651 7.72097 5.47837 7.19243C5.47848 6.66152 5.65203 6.14518 5.97261 5.72199C6.30731 5.29639 6.75424 4.97274 7.26302 4.78752C7.8256 4.58534 8.42055 4.48827 9.01821 4.50113C9.48839 4.49593 9.9567 4.56102 10.4076 4.69424C10.7983 4.80815 11.1643 4.99379 11.4869 5.24167C11.7662 5.45362 11.9993 5.72037 12.1718 6.02557C12.2236 6.12025 12.2562 6.22423 12.2676 6.33154C12.279 6.43884 12.2691 6.54735 12.2384 6.65081C12.2077 6.75427 12.1569 6.85064 12.0888 6.93437C12.0208 7.01811 11.9368 7.08755 11.8418 7.1387C11.7468 7.18985 11.6426 7.2217 11.5352 7.23242C11.4278 7.24314 11.3194 7.23251 11.2161 7.20115C11.1129 7.16979 11.0168 7.11832 10.9335 7.04969C10.8503 6.98107 10.7814 6.89665 10.7309 6.80129C10.6611 6.69149 10.5708 6.59619 10.4649 6.52062C10.3012 6.40125 10.1175 6.31202 9.92241 6.25714C9.62829 6.17286 9.32331 6.1326 9.0174 6.13767C8.62206 6.12602 8.22786 6.18589 7.85381 6.31442C7.63143 6.39017 7.43357 6.52444 7.28102 6.7031C7.17204 6.84259 7.11298 7.01459 7.11328 7.19161C7.0999 7.3567 7.14637 7.52109 7.2442 7.65475C7.37788 7.81809 7.55152 7.94409 7.74826 8.02052C8.12999 8.16751 8.52294 8.28353 8.9233 8.36746C9.25879 8.44111 9.53045 8.50657 9.75957 8.57039C10.0214 8.63504 10.2751 8.70296 10.5042 8.77251Z" fill="white"/>
</svg>
