<svg width="53" height="52" viewBox="0 0 53 52" fill="none" xmlns="http://www.w3.org/2000/svg">
<path d="M21.3008 13.0002C19.8648 13.0002 18.7008 14.1642 18.7008 15.6002C18.7008 17.0361 19.8648 18.2002 21.3008 18.2002L35.8238 18.2002L32.4623 21.5617C31.4469 22.5771 31.4469 24.2233 32.4623 25.2387C33.4777 26.254 35.1239 26.254 36.1393 25.2387L43.9393 17.4387C44.4269 16.9511 44.7008 16.2898 44.7008 15.6002C44.7008 14.9106 44.4269 14.2493 43.9393 13.7617L36.1393 5.96172C35.1239 4.94635 33.4777 4.94635 32.4623 5.96172C31.4469 6.97708 31.4469 8.62331 32.4623 9.63867L35.8238 13.0002L21.3008 13.0002Z" fill="#964DDF"/>
<path d="M31.7008 39.0002C33.1367 39.0002 34.3008 37.8361 34.3008 36.4002C34.3008 34.9643 33.1367 33.8002 31.7008 33.8002L17.1777 33.8002L20.5393 30.4387C21.5546 29.4233 21.5546 27.7771 20.5393 26.7617C19.5239 25.7464 17.8777 25.7464 16.8623 26.7617L9.0623 34.5617C8.57471 35.0493 8.30078 35.7106 8.30078 36.4002C8.30078 37.0898 8.57471 37.7511 9.0623 38.2387L16.8623 46.0387C17.8777 47.054 19.5239 47.054 20.5393 46.0387C21.5546 45.0233 21.5546 43.3771 20.5393 42.3617L17.1777 39.0002L31.7008 39.0002Z" fill="#964DDF"/>
</svg>
