<svg width="21" height="18" viewBox="0 0 21 18" fill="none" xmlns="http://www.w3.org/2000/svg">
<path fill-rule="evenodd" clip-rule="evenodd" d="M17.4843 16.2902L17.485 16.2885L17.5024 16.245L20.5012 1.12592V1.07682C20.5012 0.700115 20.362 0.371256 20.0591 0.173996C19.794 0.00133431 19.4892 -0.0109622 19.2755 0.00525841C19.0495 0.0224132 18.8364 0.0788287 18.6888 0.125789C18.6129 0.149949 18.5494 0.173227 18.504 0.190834C18.4812 0.19967 18.4627 0.207169 18.4493 0.212755L18.4361 0.218313L1.71624 6.77725L1.71164 6.7789C1.70261 6.78219 1.69066 6.78664 1.67624 6.79225C1.64749 6.80345 1.60835 6.81947 1.56237 6.8403C1.47209 6.88122 1.34735 6.94436 1.22085 7.03099C1.00599 7.17812 0.596881 7.52645 0.665963 8.07867C0.723184 8.53608 1.03849 8.82658 1.25106 8.97698C1.365 9.05761 1.47402 9.11575 1.55385 9.15375C1.59429 9.17301 1.62865 9.18776 1.65424 9.19818C1.66707 9.2034 1.67779 9.20758 1.68609 9.21073L1.69672 9.21469L1.70351 9.21722L4.62875 10.202C4.61888 10.3856 4.63708 10.5727 4.68575 10.7573L6.15104 16.3157C6.32477 16.9748 6.921 17.4339 7.60257 17.4334C8.2135 17.4329 8.75533 17.0633 8.98551 16.5119L11.2732 14.0658L15.2022 17.0781L15.258 17.1025C15.615 17.2582 15.9485 17.3076 16.2534 17.2659C16.5579 17.2243 16.7999 17.0966 16.9817 16.9512C17.1605 16.8081 17.2831 16.6466 17.3602 16.525C17.3994 16.4633 17.4286 16.409 17.4488 16.3681C17.459 16.3476 17.467 16.3302 17.473 16.3167L17.4805 16.2993L17.4832 16.2928L17.4843 16.2902ZM6.13615 10.375C6.10285 10.2486 6.15513 10.1153 6.26542 10.0452L16.1874 3.74432C16.1874 3.74432 16.771 3.39002 16.7502 3.74432C16.7502 3.74432 16.8543 3.80689 16.5416 4.09861C16.245 4.37569 9.46992 10.9167 8.78438 11.5786C8.74481 11.6168 8.72119 11.6607 8.70724 11.7139L7.60144 15.9334L6.13615 10.375Z" fill="white"/>
</svg>
