<svg width="53" height="53" viewBox="0 0 53 53" fill="none" xmlns="http://www.w3.org/2000/svg">
<path d="M5.69922 27.8002C5.69922 25.6463 7.44531 23.9002 9.59922 23.9002C11.7531 23.9002 13.4992 25.6463 13.4992 27.8002V43.4002C13.4992 45.5541 11.7531 47.3002 9.59922 47.3002C7.44531 47.3002 5.69922 45.5541 5.69922 43.4002V27.8002Z" fill="#964DDF"/>
<path d="M16.0992 27.3669V41.4864C16.0992 43.456 17.212 45.2566 18.9737 46.1374L19.1033 46.2022C20.5474 46.9243 22.1398 47.3002 23.7543 47.3002H37.8362C40.315 47.3002 42.4491 45.5506 42.9353 43.12L46.0553 27.52C46.6988 24.3023 44.2377 21.3002 40.9562 21.3002H31.6992V10.9002C31.6992 8.02831 29.3711 5.7002 26.4992 5.7002C25.0633 5.7002 23.8992 6.86425 23.8992 8.30019V10.0335C23.8992 12.2838 23.1694 14.4733 21.8192 16.2735L18.1792 21.1269C16.8291 22.9271 16.0992 25.1166 16.0992 27.3669Z" fill="#964DDF"/>
</svg>
