<svg width="60" height="60" viewBox="0 0 60 60" fill="none" xmlns="http://www.w3.org/2000/svg">
<path fill-rule="evenodd" clip-rule="evenodd" d="M31.0899 0.161703C30.6569 0.353359 30.2642 0.766463 30.0971 1.20596C30.0099 1.43515 29.9715 7.59899 29.9715 21.3452C29.9715 35.1843 29.9328 41.3416 29.8432 41.7758C28.9078 46.3062 23.4008 48.6005 19.5668 46.057C14.102 42.4315 16.2133 34.3432 22.8017 33.6641C23.5591 33.586 23.9514 33.4857 24.2061 33.3049C24.9182 32.7998 24.9093 32.8769 24.9093 27.1725V21.9645L24.6421 21.566C24.1108 20.7736 23.4028 20.6318 21.201 20.8766C14.3961 21.6332 8.6654 25.5846 5.61548 31.6233C0.743986 41.2683 4.69663 53.0719 14.4268 57.936C25.3263 63.3848 38.6891 57.5869 42.1003 45.929C42.8577 43.3406 42.8374 43.6712 42.8878 33.0433C42.9171 26.8689 42.9755 23.3373 43.0483 23.3373C43.1113 23.3373 43.519 23.5155 43.9544 23.7332C46.6684 25.0902 50.453 25.9995 53.5867 26.0475C55.0574 26.07 55.4892 25.9283 55.8759 25.2962C56.2385 24.7039 56.2325 14.595 55.8693 14.0095C55.54 13.4788 55.0513 13.2903 53.753 13.1938C47.7643 12.7488 42.9214 7.753 42.9214 2.01997C42.9214 1.1676 42.5735 0.545484 41.9207 0.230671C41.4572 0.00711093 41.1989 -0.00367982 36.4387 0.000660007C32.5388 0.00429608 31.3656 0.0396013 31.0899 0.161703Z" fill="white"/>
</svg>
