<svg width="53" height="52" viewBox="0 0 53 52" fill="none" xmlns="http://www.w3.org/2000/svg">
<path fill-rule="evenodd" clip-rule="evenodd" d="M31.6992 18.2C30.2633 18.2 29.0992 17.0359 29.0992 15.6C29.0992 14.1641 30.2633 13 31.6992 13H44.6992C46.1352 13 47.2992 14.1641 47.2992 15.6V28.6C47.2992 30.0359 46.1352 31.2 44.6992 31.2C43.2633 31.2 42.0992 30.0359 42.0992 28.6V21.877L30.9377 33.0385C29.9223 34.0538 28.2761 34.0538 27.2607 33.0385L21.2992 27.077L10.1377 38.2385C9.12233 39.2538 7.4761 39.2538 6.46074 38.2385C5.44538 37.2231 5.44538 35.5769 6.46074 34.5615L19.4607 21.5615C20.4761 20.5462 22.1223 20.5462 23.1377 21.5615L29.0992 27.523L38.4223 18.2H31.6992Z" fill="#964DDF"/>
</svg>
