<svg width="36" height="36" viewBox="0 0 36 36" fill="none" xmlns="http://www.w3.org/2000/svg">
<path d="M19.248 16.1676C18.9102 15.9765 18.5406 15.8277 18.1817 15.679C17.9705 15.5941 17.7699 15.4878 17.5904 15.3498C17.242 15.0736 17.3159 14.6169 17.7171 14.4363C17.8333 14.3832 17.9494 14.3619 18.0761 14.3619C18.1289 14.3619 18.1817 14.3513 18.2345 14.3513C18.6462 14.3513 19.0474 14.4469 19.4169 14.6275C19.4908 14.6593 19.5542 14.6806 19.5964 14.6806C19.6809 14.6806 19.7231 14.6169 19.7759 14.4681C19.8498 14.2345 19.9132 14.0008 19.9871 13.7565C20.0398 13.5972 19.9765 13.4909 19.8287 13.4272C19.5542 13.3104 19.2797 13.2148 18.9735 13.1723C18.5934 13.1086 18.5934 13.1085 18.5934 12.7262C18.5934 12.1951 18.5934 12.1738 18.1078 12.1738C18.0866 12.1738 18.0655 12.1738 18.0444 12.1738C17.9916 12.1738 17.9494 12.1738 17.8966 12.1738C17.8649 12.1738 17.8438 12.1738 17.8016 12.1738C17.5482 12.1844 17.506 12.2269 17.4954 12.4819C17.4954 12.5987 17.4954 12.7155 17.4954 12.8324C17.4954 13.1723 17.4848 13.1723 17.1681 13.2891C16.3763 13.5759 15.8906 14.1176 15.8378 14.9886C15.785 15.7534 16.1862 16.2739 16.8197 16.6562C17.1998 16.8899 17.6327 17.028 18.0444 17.2086C18.2028 17.2829 18.3612 17.3679 18.4878 17.4741C18.889 17.8034 18.8046 18.3451 18.34 18.5469C18.1606 18.6319 17.96 18.6638 17.7699 18.6638C17.696 18.6638 17.6327 18.6532 17.5482 18.6532C17.1259 18.6 16.7352 18.4938 16.3552 18.292C16.2707 18.2495 16.2179 18.2283 16.1651 18.2283C16.0807 18.2283 16.0384 18.3026 15.9856 18.4513C15.9223 18.6638 15.8589 18.8762 15.8062 19.078C15.7322 19.3542 15.7534 19.4286 16.0279 19.556C16.3657 19.726 16.7352 19.8109 17.1153 19.864C17.4109 19.9172 17.4109 19.9172 17.4215 20.2252C17.4215 20.3633 17.4215 20.5014 17.4321 20.6394C17.4321 20.82 17.5165 20.9156 17.696 20.9156C17.791 20.9156 17.886 20.9156 17.9811 20.9156C18.0866 20.9156 18.2028 20.9156 18.2978 20.905C18.4667 20.8944 18.5512 20.8094 18.5512 20.6501C18.5512 20.4589 18.5617 20.2677 18.5512 20.0765C18.5406 19.8853 18.6251 19.7897 18.8046 19.7366C19.2269 19.6197 19.5859 19.3967 19.8709 19.0568C20.6311 18.1433 20.3355 16.7731 19.248 16.1676Z" fill="white"/>
<path d="M24.2738 1H11.7944C9.77788 1 8.13086 2.65701 8.13086 4.68578V31.5378C8.13086 33.5666 9.77788 35.2236 11.7944 35.2236H24.2844C26.3009 35.2236 27.9479 33.5666 27.9479 31.5378V24.0494V7.82985V4.67516C27.9374 2.65701 26.2904 1 24.2738 1ZM19.565 32.9824H16.5032C15.912 32.9824 15.4263 32.4938 15.4263 31.899C15.4263 31.3041 15.912 30.8155 16.5032 30.8155H19.565C20.1563 30.8155 20.6419 31.3041 20.6419 31.899C20.6419 32.4938 20.1563 32.9824 19.565 32.9824ZM22.8802 21.4364C21.5393 22.7854 19.7867 23.4546 18.0341 23.4546C16.8305 23.4546 15.6269 23.1359 14.5606 22.5092L14.55 22.4986C13.7265 23.1253 12.8608 23.3378 12.1428 23.3378C11.9634 23.3378 11.7839 23.3271 11.6361 23.2953C11.3827 23.2528 11.3299 22.9023 11.5622 22.7854C12.2695 22.4349 12.713 21.7445 12.9769 21.1815L12.903 21.1284C10.5169 18.4198 10.612 14.2773 13.1881 11.6856C14.5289 10.3366 16.2815 9.66743 18.0341 9.66743C19.7867 9.66743 21.5393 10.3472 22.8802 11.6856C25.5619 14.3835 25.5619 18.7491 22.8802 21.4364Z" fill="white"/>
</svg>
