<svg width="53" height="52" viewBox="0 0 53 52" fill="none" xmlns="http://www.w3.org/2000/svg">
<path d="M13.5008 7.7998C10.6289 7.7998 8.30078 10.1279 8.30078 12.9998V18.1998C8.30078 21.0717 10.6289 23.3998 13.5008 23.3998H18.7008C21.5727 23.3998 23.9008 21.0717 23.9008 18.1998V12.9998C23.9008 10.1279 21.5727 7.7998 18.7008 7.7998H13.5008Z" fill="#964DDF"/>
<path d="M13.5008 28.5998C10.6289 28.5998 8.30078 30.9279 8.30078 33.7998V38.9998C8.30078 41.8717 10.6289 44.1998 13.5008 44.1998H18.7008C21.5727 44.1998 23.9008 41.8717 23.9008 38.9998V33.7998C23.9008 30.9279 21.5727 28.5998 18.7008 28.5998H13.5008Z" fill="#964DDF"/>
<path d="M29.1008 12.9998C29.1008 10.1279 31.4289 7.7998 34.3008 7.7998H39.5008C42.3727 7.7998 44.7008 10.1279 44.7008 12.9998V18.1998C44.7008 21.0717 42.3727 23.3998 39.5008 23.3998H34.3008C31.4289 23.3998 29.1008 21.0717 29.1008 18.1998V12.9998Z" fill="#964DDF"/>
<path d="M36.9008 28.5998C38.3367 28.5998 39.5008 29.7639 39.5008 31.1998V33.7998H42.1008C43.5367 33.7998 44.7008 34.9639 44.7008 36.3998C44.7008 37.8357 43.5367 38.9998 42.1008 38.9998H39.5008V41.5998C39.5008 43.0357 38.3367 44.1998 36.9008 44.1998C35.4648 44.1998 34.3008 43.0357 34.3008 41.5998V38.9998H31.7008C30.2648 38.9998 29.1008 37.8357 29.1008 36.3998C29.1008 34.9639 30.2648 33.7998 31.7008 33.7998H34.3008V31.1998C34.3008 29.7639 35.4648 28.5998 36.9008 28.5998Z" fill="#964DDF"/>
</svg>
