<svg width="31" height="31" viewBox="0 0 31 31" fill="none" xmlns="http://www.w3.org/2000/svg">
<path fill-rule="evenodd" clip-rule="evenodd" d="M15.4992 30.3002C23.673 30.3002 30.2992 23.674 30.2992 15.5002C30.2992 7.32638 23.673 0.700195 15.4992 0.700195C7.3254 0.700195 0.699219 7.32638 0.699219 15.5002C0.699219 23.674 7.3254 30.3002 15.4992 30.3002ZM22.3574 13.1083C23.0798 12.3859 23.0798 11.2145 22.3574 10.492C21.6349 9.76958 20.4635 9.76958 19.7411 10.492L13.6492 16.5839L11.2574 14.192C10.5349 13.4696 9.36354 13.4696 8.64107 14.192C7.9186 14.9145 7.9186 16.0859 8.64107 16.8083L12.3411 20.5083C13.0635 21.2308 14.2349 21.2308 14.9574 20.5083L22.3574 13.1083Z" fill="#964DDF"/>
</svg>
